M48
; DRILL file {KiCad 8.0.5} date 2024-10-08T19:16:18+0900
; FORMAT={-:-/ absolute / inch / decimal}
; #@! TF.CreationDate,2024-10-08T19:16:18+09:00
; #@! TF.GenerationSoftware,Kicad,Pcbnew,8.0.5
; #@! TF.FileFunction,Plated,1,2,PTH
FMAT,2
INCH
; #@! TA.AperFunction,Plated,PTH,ViaDrill
T1C0.0118
; #@! TA.AperFunction,Plated,PTH,ComponentDrill
T2C0.0315
; #@! TA.AperFunction,Plated,PTH,ComponentDrill
T3C0.0394
%
G90
G05
T1
X2.5Y-1.3583
X2.5984Y-1.3583
X2.6181Y-1.5354
X2.6181Y-1.7913
X2.6181Y-1.8701
X2.6969Y-1.3583
X2.6969Y-1.7913
X2.7756Y-1.7913
X2.7921Y-1.3583
X2.7921Y-1.4583
X2.8134Y-1.063
X2.8921Y-1.3583
X2.8921Y-1.4583
X2.9134Y-1.063
X2.9921Y-1.3583
X2.9921Y-1.4583
X2.9921Y-1.7913
X3.0087Y-1.063
X3.0906Y-1.5551
X3.0906Y-1.7913
X3.0921Y-1.3583
X3.0921Y-1.4583
X3.1087Y-1.063
X3.2087Y-1.063
X3.2087Y-1.2598
X3.3071Y-1.063
X3.3071Y-1.163
X3.3071Y-1.2598
X3.3992Y-2.185
X3.4071Y-1.063
X3.4071Y-1.163
X3.4449Y-2.0866
X3.4992Y-2.185
X3.5039Y-1.4764
X3.5071Y-1.063
X3.5071Y-1.163
X3.563Y-1.2598
X3.5992Y-2.185
X3.6024Y-1.4764
X3.6071Y-1.063
X3.6071Y-1.163
X3.6614Y-1.2598
X3.6614Y-1.6929
X3.6614Y-2.0866
X3.6992Y-2.185
X3.7008Y-1.4764
X3.7071Y-1.063
X3.7071Y-1.163
X3.7598Y-1.2598
X3.7992Y-2.185
X3.8071Y-1.063
X3.8071Y-1.163
X3.8976Y-2.0866
X3.8992Y-2.185
X3.9071Y-1.063
X3.9071Y-1.163
X3.9992Y-2.185
X4.0071Y-1.063
X4.0071Y-1.163
X4.0157Y-1.2598
X4.0945Y-1.063
X4.0945Y-1.1614
X4.0945Y-1.2598
X4.0945Y-2.185
X4.1142Y-2.0866
X4.152Y-1.5354
X4.152Y-1.7323
X4.152Y-1.811
X4.2126Y-1.378
X4.252Y-1.5354
X4.252Y-1.7323
X4.252Y-1.811
X4.252Y-1.8898
X4.311Y-1.378
X4.3307Y-1.8898
T2
X2.7729Y-1.6299
X2.9737Y-1.6772
X3.2283Y-1.357
X3.2283Y-1.5919
X3.3465Y-1.752
X3.3465Y-2.0866
X3.563Y-1.357
X3.563Y-1.5919
X3.563Y-1.752
X3.563Y-2.0866
X3.723Y-1.3583
X3.723Y-1.5932
X3.7795Y-1.752
X3.7795Y-2.0866
X4.0157Y-1.752
X4.0157Y-2.0866
X4.0577Y-1.3583
X4.0577Y-1.5932
T3
X2.815Y-1.9291
X2.815Y-2.0669
X2.815Y-2.2047
X2.9528Y-1.9291
X2.9528Y-2.0669
X2.9528Y-2.2047
X3.0906Y-1.9291
X3.0906Y-2.0669
X3.0906Y-2.2047
M30
