%TF.GenerationSoftware,KiCad,Pcbnew,8.0.5*%
%TF.CreationDate,2024-10-05T17:35:55+09:00*%
%TF.ProjectId,ATT_24dB,4154545f-3234-4644-922e-6b696361645f,rev?*%
%TF.SameCoordinates,Original*%
%TF.FileFunction,Copper,L2,Bot*%
%TF.FilePolarity,Positive*%
%FSLAX46Y46*%
G04 Gerber Fmt 4.6, Leading zero omitted, Abs format (unit mm)*
G04 Created by KiCad (PCBNEW 8.0.5) date 2024-10-05 17:35:55*
%MOMM*%
%LPD*%
G01*
G04 APERTURE LIST*
G04 Aperture macros list*
%AMRoundRect*
0 Rectangle with rounded corners*
0 $1 Rounding radius*
0 $2 $3 $4 $5 $6 $7 $8 $9 X,Y pos of 4 corners*
0 Add a 4 corners polygon primitive as box body*
4,1,4,$2,$3,$4,$5,$6,$7,$8,$9,$2,$3,0*
0 Add four circle primitives for the rounded corners*
1,1,$1+$1,$2,$3*
1,1,$1+$1,$4,$5*
1,1,$1+$1,$6,$7*
1,1,$1+$1,$8,$9*
0 Add four rect primitives between the rounded corners*
20,1,$1+$1,$2,$3,$4,$5,0*
20,1,$1+$1,$4,$5,$6,$7,0*
20,1,$1+$1,$6,$7,$8,$9,0*
20,1,$1+$1,$8,$9,$2,$3,0*%
G04 Aperture macros list end*
%TA.AperFunction,ComponentPad*%
%ADD10C,2.000000*%
%TD*%
%TA.AperFunction,SMDPad,CuDef*%
%ADD11RoundRect,0.250000X1.600000X-0.425000X1.600000X0.425000X-1.600000X0.425000X-1.600000X-0.425000X0*%
%TD*%
%TA.AperFunction,ComponentPad*%
%ADD12C,1.600000*%
%TD*%
%TA.AperFunction,ComponentPad*%
%ADD13O,1.600000X1.600000*%
%TD*%
%TA.AperFunction,SMDPad,CuDef*%
%ADD14RoundRect,0.250000X-1.600000X0.425000X-1.600000X-0.425000X1.600000X-0.425000X1.600000X0.425000X0*%
%TD*%
%TA.AperFunction,ComponentPad*%
%ADD15C,1.710000*%
%TD*%
%TA.AperFunction,ViaPad*%
%ADD16C,0.600000*%
%TD*%
G04 APERTURE END LIST*
D10*
%TO.P,REF001,1*%
%TO.N,N/C*%
X71500000Y-49000000D03*
%TD*%
D11*
%TO.P,J2,2,Ext*%
%TO.N,GND*%
X112087500Y-39175000D03*
X112087500Y-44825000D03*
%TD*%
D10*
%TO.P,REF001,1*%
%TO.N,N/C*%
X75000000Y-56000000D03*
%TD*%
%TO.P,REF001,1*%
%TO.N,N/C*%
X78500000Y-52500000D03*
%TD*%
D12*
%TO.P,R8,1*%
%TO.N,Net-(R7-Pad2)*%
X94565000Y-40467500D03*
D13*
%TO.P,R8,2*%
%TO.N,Net-(J2-In)*%
X103065000Y-40467500D03*
%TD*%
D12*
%TO.P,R1,1*%
%TO.N,Net-(F1-Pad1)*%
X85000000Y-44500000D03*
D13*
%TO.P,R1,2*%
%TO.N,GND*%
X85000000Y-53000000D03*
%TD*%
D12*
%TO.P,R6,1*%
%TO.N,Net-(R5-Pad2)*%
X94565000Y-34500000D03*
D13*
%TO.P,R6,2*%
%TO.N,Net-(J2-In)*%
X103065000Y-34500000D03*
%TD*%
D10*
%TO.P,REF001,1*%
%TO.N,N/C*%
X78500000Y-49000000D03*
%TD*%
D12*
%TO.P,R7,1*%
%TO.N,Net-(F1-Pad1)*%
X82000000Y-40435000D03*
D13*
%TO.P,R7,2*%
%TO.N,Net-(R7-Pad2)*%
X90500000Y-40435000D03*
%TD*%
D12*
%TO.P,R3,1*%
%TO.N,Net-(J2-In)*%
X96000000Y-44500000D03*
D13*
%TO.P,R3,2*%
%TO.N,GND*%
X96000000Y-53000000D03*
%TD*%
D12*
%TO.P,R5,1*%
%TO.N,Net-(F1-Pad1)*%
X82000000Y-34467500D03*
D13*
%TO.P,R5,2*%
%TO.N,Net-(R5-Pad2)*%
X90500000Y-34467500D03*
%TD*%
D10*
%TO.P,REF001,1*%
%TO.N,N/C*%
X75000000Y-49000000D03*
%TD*%
D12*
%TO.P,R2,1*%
%TO.N,Net-(F1-Pad1)*%
X90500000Y-44500000D03*
D13*
%TO.P,R2,2*%
%TO.N,GND*%
X90500000Y-53000000D03*
%TD*%
D14*
%TO.P,J1,2,Ext*%
%TO.N,GND*%
X62912500Y-44825000D03*
X62912500Y-39175000D03*
%TD*%
D15*
%TO.P,F1,1*%
%TO.N,Net-(F1-Pad1)*%
X75532500Y-43000000D03*
%TO.P,F1,2*%
%TO.N,Net-(J1-In)*%
X70432500Y-41800000D03*
%TD*%
D10*
%TO.P,REF001,1*%
%TO.N,N/C*%
X75000000Y-52500000D03*
%TD*%
D12*
%TO.P,R4,1*%
%TO.N,Net-(J2-In)*%
X102000000Y-44500000D03*
D13*
%TO.P,R4,2*%
%TO.N,GND*%
X102000000Y-53000000D03*
%TD*%
D10*
%TO.P,REF001,1*%
%TO.N,N/C*%
X71500000Y-52500000D03*
%TD*%
%TO.P,REF001,1*%
%TO.N,N/C*%
X78500000Y-56000000D03*
%TD*%
%TO.P,REF001,1*%
%TO.N,N/C*%
X71500000Y-56000000D03*
%TD*%
D16*
%TO.N,GND*%
X89000000Y-37500000D03*
X91500000Y-37500000D03*
X86540000Y-27000000D03*
X99040000Y-55500000D03*
X90500000Y-32000000D03*
X78500000Y-39500000D03*
X104000000Y-32000000D03*
X74000000Y-27000000D03*
X91620000Y-27000000D03*
X84000000Y-29540000D03*
X91620000Y-29540000D03*
X99240000Y-27000000D03*
X87500000Y-53000000D03*
X96700000Y-29540000D03*
X76000000Y-34500000D03*
X70920000Y-34500000D03*
X94160000Y-27000000D03*
X101780000Y-27000000D03*
X81500000Y-27000000D03*
X73460000Y-34500000D03*
X96700000Y-27000000D03*
X84000000Y-27000000D03*
X68500000Y-45500000D03*
X66000000Y-34500000D03*
X101780000Y-29540000D03*
X93000000Y-53000000D03*
X71460000Y-27000000D03*
X68500000Y-34500000D03*
X63500000Y-34500000D03*
X81500000Y-32000000D03*
X66500000Y-47500000D03*
X104000000Y-29500000D03*
X104000000Y-55500000D03*
X108000000Y-48000000D03*
X91420000Y-55500000D03*
X99240000Y-29540000D03*
X76420000Y-27000000D03*
X70920000Y-37040000D03*
X104000000Y-27000000D03*
X93000000Y-43000000D03*
X109500000Y-35000000D03*
X96500000Y-55500000D03*
X89080000Y-29540000D03*
X101580000Y-55500000D03*
X78500000Y-45500000D03*
X108000000Y-46000000D03*
X88880000Y-55500000D03*
X105460000Y-39000000D03*
X86540000Y-29540000D03*
X76000000Y-45500000D03*
X99000000Y-53000000D03*
X108000000Y-39000000D03*
X66500000Y-45500000D03*
X105460000Y-46000000D03*
X70500000Y-45500000D03*
X107000000Y-35000000D03*
X102000000Y-32000000D03*
X108000000Y-44000000D03*
X94160000Y-29540000D03*
X84000000Y-32000000D03*
X78540000Y-34500000D03*
X66500000Y-39000000D03*
X89080000Y-27000000D03*
X78540000Y-37040000D03*
X86340000Y-55500000D03*
X78960000Y-27000000D03*
X110000000Y-48000000D03*
X95500000Y-32000000D03*
X76000000Y-37040000D03*
X105460000Y-44000000D03*
X93000000Y-32000000D03*
X73460000Y-37040000D03*
X104500000Y-53000000D03*
X93960000Y-55500000D03*
X94000000Y-37500000D03*
%TD*%
%TA.AperFunction,Conductor*%
%TO.N,GND*%
G36*
X105016177Y-25520185D02*
G01*
X105036819Y-25536819D01*
X105963681Y-26463681D01*
X105997166Y-26525004D01*
X106000000Y-26551362D01*
X106000000Y-32000000D01*
X105999999Y-32000000D01*
X107000000Y-32750000D01*
X108000000Y-33500000D01*
X112448638Y-33500000D01*
X112515677Y-33519685D01*
X112536319Y-33536319D01*
X113963181Y-34963181D01*
X113996666Y-35024504D01*
X113999500Y-35050862D01*
X113999500Y-37891562D01*
X113979815Y-37958601D01*
X113927011Y-38004356D01*
X113857853Y-38014300D01*
X113846854Y-38011709D01*
X113846811Y-38011911D01*
X113840190Y-38010493D01*
X113737486Y-38000000D01*
X112337500Y-38000000D01*
X112337500Y-40349999D01*
X113737472Y-40349999D01*
X113737486Y-40349998D01*
X113840193Y-40339506D01*
X113846813Y-40338089D01*
X113847300Y-40340364D01*
X113906297Y-40338322D01*
X113966347Y-40374040D01*
X113997554Y-40436553D01*
X113999500Y-40458437D01*
X113999500Y-43541562D01*
X113979815Y-43608601D01*
X113927011Y-43654356D01*
X113857853Y-43664300D01*
X113846854Y-43661709D01*
X113846811Y-43661911D01*
X113840190Y-43660493D01*
X113737486Y-43650000D01*
X112337500Y-43650000D01*
X112337500Y-45999999D01*
X113737472Y-45999999D01*
X113737486Y-45999998D01*
X113840193Y-45989506D01*
X113846813Y-45988089D01*
X113847300Y-45990364D01*
X113906297Y-45988322D01*
X113966347Y-46024040D01*
X113997554Y-46086553D01*
X113999500Y-46108437D01*
X113999500Y-48449138D01*
X113979815Y-48516177D01*
X113963181Y-48536819D01*
X113036319Y-49463681D01*
X112974996Y-49497166D01*
X112948638Y-49500000D01*
X109000000Y-49500000D01*
X106500000Y-50999999D01*
X106500000Y-56448638D01*
X106480315Y-56515677D01*
X106463681Y-56536319D01*
X105536819Y-57463181D01*
X105475496Y-57496666D01*
X105449138Y-57499500D01*
X84550862Y-57499500D01*
X84483823Y-57479815D01*
X84463181Y-57463181D01*
X82536319Y-55536319D01*
X82502834Y-55474996D01*
X82500000Y-55448638D01*
X82500000Y-52749999D01*
X83721127Y-52749999D01*
X83721128Y-52750000D01*
X84684314Y-52750000D01*
X84679920Y-52754394D01*
X84627259Y-52845606D01*
X84600000Y-52947339D01*
X84600000Y-53052661D01*
X84627259Y-53154394D01*
X84679920Y-53245606D01*
X84684314Y-53250000D01*
X83721128Y-53250000D01*
X83773730Y-53446317D01*
X83773734Y-53446326D01*
X83869865Y-53652482D01*
X84000342Y-53838820D01*
X84161179Y-53999657D01*
X84347517Y-54130134D01*
X84553673Y-54226265D01*
X84553682Y-54226269D01*
X84749999Y-54278872D01*
X84750000Y-54278871D01*
X84750000Y-53315686D01*
X84754394Y-53320080D01*
X84845606Y-53372741D01*
X84947339Y-53400000D01*
X85052661Y-53400000D01*
X85154394Y-53372741D01*
X85245606Y-53320080D01*
X85250000Y-53315686D01*
X85250000Y-54278872D01*
X85446317Y-54226269D01*
X85446326Y-54226265D01*
X85652482Y-54130134D01*
X85838820Y-53999657D01*
X85999657Y-53838820D01*
X86130134Y-53652482D01*
X86226265Y-53446326D01*
X86226269Y-53446317D01*
X86278872Y-53250000D01*
X85315686Y-53250000D01*
X85320080Y-53245606D01*
X85372741Y-53154394D01*
X85400000Y-53052661D01*
X85400000Y-52947339D01*
X85372741Y-52845606D01*
X85320080Y-52754394D01*
X85315686Y-52750000D01*
X86278872Y-52750000D01*
X86278872Y-52749999D01*
X89221127Y-52749999D01*
X89221128Y-52750000D01*
X90184314Y-52750000D01*
X90179920Y-52754394D01*
X90127259Y-52845606D01*
X90100000Y-52947339D01*
X90100000Y-53052661D01*
X90127259Y-53154394D01*
X90179920Y-53245606D01*
X90184314Y-53250000D01*
X89221128Y-53250000D01*
X89273730Y-53446317D01*
X89273734Y-53446326D01*
X89369865Y-53652482D01*
X89500342Y-53838820D01*
X89661179Y-53999657D01*
X89847517Y-54130134D01*
X90053673Y-54226265D01*
X90053682Y-54226269D01*
X90249999Y-54278872D01*
X90250000Y-54278871D01*
X90250000Y-53315686D01*
X90254394Y-53320080D01*
X90345606Y-53372741D01*
X90447339Y-53400000D01*
X90552661Y-53400000D01*
X90654394Y-53372741D01*
X90745606Y-53320080D01*
X90750000Y-53315686D01*
X90750000Y-54278872D01*
X90946317Y-54226269D01*
X90946326Y-54226265D01*
X91152482Y-54130134D01*
X91338820Y-53999657D01*
X91499657Y-53838820D01*
X91630134Y-53652482D01*
X91726265Y-53446326D01*
X91726269Y-53446317D01*
X91778872Y-53250000D01*
X90815686Y-53250000D01*
X90820080Y-53245606D01*
X90872741Y-53154394D01*
X90900000Y-53052661D01*
X90900000Y-52947339D01*
X90872741Y-52845606D01*
X90820080Y-52754394D01*
X90815686Y-52750000D01*
X91778872Y-52750000D01*
X91778872Y-52749999D01*
X94721127Y-52749999D01*
X94721128Y-52750000D01*
X95684314Y-52750000D01*
X95679920Y-52754394D01*
X95627259Y-52845606D01*
X95600000Y-52947339D01*
X95600000Y-53052661D01*
X95627259Y-53154394D01*
X95679920Y-53245606D01*
X95684314Y-53250000D01*
X94721128Y-53250000D01*
X94773730Y-53446317D01*
X94773734Y-53446326D01*
X94869865Y-53652482D01*
X95000342Y-53838820D01*
X95161179Y-53999657D01*
X95347517Y-54130134D01*
X95553673Y-54226265D01*
X95553682Y-54226269D01*
X95749999Y-54278872D01*
X95750000Y-54278871D01*
X95750000Y-53315686D01*
X95754394Y-53320080D01*
X95845606Y-53372741D01*
X95947339Y-53400000D01*
X96052661Y-53400000D01*
X96154394Y-53372741D01*
X96245606Y-53320080D01*
X96250000Y-53315686D01*
X96250000Y-54278872D01*
X96446317Y-54226269D01*
X96446326Y-54226265D01*
X96652482Y-54130134D01*
X96838820Y-53999657D01*
X96999657Y-53838820D01*
X97130134Y-53652482D01*
X97226265Y-53446326D01*
X97226269Y-53446317D01*
X97278872Y-53250000D01*
X96315686Y-53250000D01*
X96320080Y-53245606D01*
X96372741Y-53154394D01*
X96400000Y-53052661D01*
X96400000Y-52947339D01*
X96372741Y-52845606D01*
X96320080Y-52754394D01*
X96315686Y-52750000D01*
X97278872Y-52750000D01*
X97278872Y-52749999D01*
X100721127Y-52749999D01*
X100721128Y-52750000D01*
X101684314Y-52750000D01*
X101679920Y-52754394D01*
X101627259Y-52845606D01*
X101600000Y-52947339D01*
X101600000Y-53052661D01*
X101627259Y-53154394D01*
X101679920Y-53245606D01*
X101684314Y-53250000D01*
X100721128Y-53250000D01*
X100773730Y-53446317D01*
X100773734Y-53446326D01*
X100869865Y-53652482D01*
X101000342Y-53838820D01*
X101161179Y-53999657D01*
X101347517Y-54130134D01*
X101553673Y-54226265D01*
X101553682Y-54226269D01*
X101749999Y-54278872D01*
X101750000Y-54278871D01*
X101750000Y-53315686D01*
X101754394Y-53320080D01*
X101845606Y-53372741D01*
X101947339Y-53400000D01*
X102052661Y-53400000D01*
X102154394Y-53372741D01*
X102245606Y-53320080D01*
X102250000Y-53315686D01*
X102250000Y-54278872D01*
X102446317Y-54226269D01*
X102446326Y-54226265D01*
X102652482Y-54130134D01*
X102838820Y-53999657D01*
X102999657Y-53838820D01*
X103130134Y-53652482D01*
X103226265Y-53446326D01*
X103226269Y-53446317D01*
X103278872Y-53250000D01*
X102315686Y-53250000D01*
X102320080Y-53245606D01*
X102372741Y-53154394D01*
X102400000Y-53052661D01*
X102400000Y-52947339D01*
X102372741Y-52845606D01*
X102320080Y-52754394D01*
X102315686Y-52750000D01*
X103278872Y-52750000D01*
X103278872Y-52749999D01*
X103226269Y-52553682D01*
X103226265Y-52553673D01*
X103130134Y-52347517D01*
X102999657Y-52161179D01*
X102838820Y-52000342D01*
X102652482Y-51869865D01*
X102446328Y-51773734D01*
X102250000Y-51721127D01*
X102250000Y-52684314D01*
X102245606Y-52679920D01*
X102154394Y-52627259D01*
X102052661Y-52600000D01*
X101947339Y-52600000D01*
X101845606Y-52627259D01*
X101754394Y-52679920D01*
X101750000Y-52684314D01*
X101750000Y-51721127D01*
X101553671Y-51773734D01*
X101347517Y-51869865D01*
X101161179Y-52000342D01*
X101000342Y-52161179D01*
X100869865Y-52347517D01*
X100773734Y-52553673D01*
X100773730Y-52553682D01*
X100721127Y-52749999D01*
X97278872Y-52749999D01*
X97226269Y-52553682D01*
X97226265Y-52553673D01*
X97130134Y-52347517D01*
X96999657Y-52161179D01*
X96838820Y-52000342D01*
X96652482Y-51869865D01*
X96446328Y-51773734D01*
X96250000Y-51721127D01*
X96250000Y-52684314D01*
X96245606Y-52679920D01*
X96154394Y-52627259D01*
X96052661Y-52600000D01*
X95947339Y-52600000D01*
X95845606Y-52627259D01*
X95754394Y-52679920D01*
X95750000Y-52684314D01*
X95750000Y-51721127D01*
X95553671Y-51773734D01*
X95347517Y-51869865D01*
X95161179Y-52000342D01*
X95000342Y-52161179D01*
X94869865Y-52347517D01*
X94773734Y-52553673D01*
X94773730Y-52553682D01*
X94721127Y-52749999D01*
X91778872Y-52749999D01*
X91726269Y-52553682D01*
X91726265Y-52553673D01*
X91630134Y-52347517D01*
X91499657Y-52161179D01*
X91338820Y-52000342D01*
X91152482Y-51869865D01*
X90946328Y-51773734D01*
X90750000Y-51721127D01*
X90750000Y-52684314D01*
X90745606Y-52679920D01*
X90654394Y-52627259D01*
X90552661Y-52600000D01*
X90447339Y-52600000D01*
X90345606Y-52627259D01*
X90254394Y-52679920D01*
X90250000Y-52684314D01*
X90250000Y-51721127D01*
X90053671Y-51773734D01*
X89847517Y-51869865D01*
X89661179Y-52000342D01*
X89500342Y-52161179D01*
X89369865Y-52347517D01*
X89273734Y-52553673D01*
X89273730Y-52553682D01*
X89221127Y-52749999D01*
X86278872Y-52749999D01*
X86226269Y-52553682D01*
X86226265Y-52553673D01*
X86130134Y-52347517D01*
X85999657Y-52161179D01*
X85838820Y-52000342D01*
X85652482Y-51869865D01*
X85446328Y-51773734D01*
X85250000Y-51721127D01*
X85250000Y-52684314D01*
X85245606Y-52679920D01*
X85154394Y-52627259D01*
X85052661Y-52600000D01*
X84947339Y-52600000D01*
X84845606Y-52627259D01*
X84754394Y-52679920D01*
X84750000Y-52684314D01*
X84750000Y-51721127D01*
X84553671Y-51773734D01*
X84347517Y-51869865D01*
X84161179Y-52000342D01*
X84000342Y-52161179D01*
X83869865Y-52347517D01*
X83773734Y-52553673D01*
X83773730Y-52553682D01*
X83721127Y-52749999D01*
X82500000Y-52749999D01*
X82500000Y-49000000D01*
X80500000Y-47000000D01*
X70000000Y-47000000D01*
X69999999Y-47000000D01*
X67536319Y-49463681D01*
X67474996Y-49497166D01*
X67448638Y-49500000D01*
X62051362Y-49500000D01*
X61984323Y-49480315D01*
X61963681Y-49463681D01*
X61036819Y-48536819D01*
X61003334Y-48475496D01*
X61000500Y-48449138D01*
X61000500Y-46108437D01*
X61020185Y-46041398D01*
X61072989Y-45995643D01*
X61142147Y-45985699D01*
X61153145Y-45988291D01*
X61153189Y-45988089D01*
X61159809Y-45989506D01*
X61262519Y-45999999D01*
X62662499Y-45999999D01*
X63162500Y-45999999D01*
X64562472Y-45999999D01*
X64562486Y-45999998D01*
X64665197Y-45989505D01*
X64831619Y-45934358D01*
X64831624Y-45934356D01*
X64980845Y-45842315D01*
X65104815Y-45718345D01*
X65196856Y-45569124D01*
X65196858Y-45569119D01*
X65252005Y-45402697D01*
X65252006Y-45402690D01*
X65262499Y-45299986D01*
X65262500Y-45299973D01*
X65262500Y-45075000D01*
X63162500Y-45075000D01*
X63162500Y-45999999D01*
X62662499Y-45999999D01*
X62662500Y-45999998D01*
X62662500Y-44575000D01*
X63162500Y-44575000D01*
X65262499Y-44575000D01*
X65262499Y-44499998D01*
X83694532Y-44499998D01*
X83694532Y-44500001D01*
X83714364Y-44726686D01*
X83714366Y-44726697D01*
X83773258Y-44946488D01*
X83773261Y-44946497D01*
X83869431Y-45152732D01*
X83869432Y-45152734D01*
X83999954Y-45339141D01*
X84160858Y-45500045D01*
X84160861Y-45500047D01*
X84347266Y-45630568D01*
X84553504Y-45726739D01*
X84773308Y-45785635D01*
X84935230Y-45799801D01*
X84999998Y-45805468D01*
X85000000Y-45805468D01*
X85000002Y-45805468D01*
X85056673Y-45800509D01*
X85226692Y-45785635D01*
X85446496Y-45726739D01*
X85652734Y-45630568D01*
X85839139Y-45500047D01*
X86000047Y-45339139D01*
X86130568Y-45152734D01*
X86226739Y-44946496D01*
X86285635Y-44726692D01*
X86305468Y-44500000D01*
X86305468Y-44499998D01*
X89194532Y-44499998D01*
X89194532Y-44500001D01*
X89214364Y-44726686D01*
X89214366Y-44726697D01*
X89273258Y-44946488D01*
X89273261Y-44946497D01*
X89369431Y-45152732D01*
X89369432Y-45152734D01*
X89499954Y-45339141D01*
X89660858Y-45500045D01*
X89660861Y-45500047D01*
X89847266Y-45630568D01*
X90053504Y-45726739D01*
X90273308Y-45785635D01*
X90435230Y-45799801D01*
X90499998Y-45805468D01*
X90500000Y-45805468D01*
X90500002Y-45805468D01*
X90556673Y-45800509D01*
X90726692Y-45785635D01*
X90946496Y-45726739D01*
X91152734Y-45630568D01*
X91339139Y-45500047D01*
X91500047Y-45339139D01*
X91630568Y-45152734D01*
X91726739Y-44946496D01*
X91785635Y-44726692D01*
X91805468Y-44500000D01*
X91805468Y-44499998D01*
X94694532Y-44499998D01*
X94694532Y-44500001D01*
X94714364Y-44726686D01*
X94714366Y-44726697D01*
X94773258Y-44946488D01*
X94773261Y-44946497D01*
X94869431Y-45152732D01*
X94869432Y-45152734D01*
X94999954Y-45339141D01*
X95160858Y-45500045D01*
X95160861Y-45500047D01*
X95347266Y-45630568D01*
X95553504Y-45726739D01*
X95773308Y-45785635D01*
X95935230Y-45799801D01*
X95999998Y-45805468D01*
X96000000Y-45805468D01*
X96000002Y-45805468D01*
X96056673Y-45800509D01*
X96226692Y-45785635D01*
X96446496Y-45726739D01*
X96652734Y-45630568D01*
X96839139Y-45500047D01*
X97000047Y-45339139D01*
X97130568Y-45152734D01*
X97226739Y-44946496D01*
X97285635Y-44726692D01*
X97305468Y-44500000D01*
X97305468Y-44499998D01*
X100694532Y-44499998D01*
X100694532Y-44500001D01*
X100714364Y-44726686D01*
X100714366Y-44726697D01*
X100773258Y-44946488D01*
X100773261Y-44946497D01*
X100869431Y-45152732D01*
X100869432Y-45152734D01*
X100999954Y-45339141D01*
X101160858Y-45500045D01*
X101160861Y-45500047D01*
X101347266Y-45630568D01*
X101553504Y-45726739D01*
X101773308Y-45785635D01*
X101935230Y-45799801D01*
X101999998Y-45805468D01*
X102000000Y-45805468D01*
X102000002Y-45805468D01*
X102056673Y-45800509D01*
X102226692Y-45785635D01*
X102446496Y-45726739D01*
X102652734Y-45630568D01*
X102839139Y-45500047D01*
X103000047Y-45339139D01*
X103027462Y-45299986D01*
X109737501Y-45299986D01*
X109747994Y-45402697D01*
X109803141Y-45569119D01*
X109803143Y-45569124D01*
X109895184Y-45718345D01*
X110019154Y-45842315D01*
X110168375Y-45934356D01*
X110168380Y-45934358D01*
X110334802Y-45989505D01*
X110334809Y-45989506D01*
X110437519Y-45999999D01*
X111837499Y-45999999D01*
X111837500Y-45999998D01*
X111837500Y-45075000D01*
X109737501Y-45075000D01*
X109737501Y-45299986D01*
X103027462Y-45299986D01*
X103130568Y-45152734D01*
X103226739Y-44946496D01*
X103285635Y-44726692D01*
X103305468Y-44500000D01*
X103292346Y-44350013D01*
X109737500Y-44350013D01*
X109737500Y-44575000D01*
X111837500Y-44575000D01*
X111837500Y-43650000D01*
X110437528Y-43650000D01*
X110437512Y-43650001D01*
X110334802Y-43660494D01*
X110168380Y-43715641D01*
X110168375Y-43715643D01*
X110019154Y-43807684D01*
X109895184Y-43931654D01*
X109803143Y-44080875D01*
X109803141Y-44080880D01*
X109747994Y-44247302D01*
X109747993Y-44247309D01*
X109737500Y-44350013D01*
X103292346Y-44350013D01*
X103285635Y-44273308D01*
X103226739Y-44053504D01*
X103130568Y-43847266D01*
X103000047Y-43660861D01*
X103000045Y-43660858D01*
X102839141Y-43499954D01*
X102652734Y-43369432D01*
X102652732Y-43369431D01*
X102446497Y-43273261D01*
X102446488Y-43273258D01*
X102226697Y-43214366D01*
X102226693Y-43214365D01*
X102226692Y-43214365D01*
X102226691Y-43214364D01*
X102226686Y-43214364D01*
X102000002Y-43194532D01*
X101999998Y-43194532D01*
X101773313Y-43214364D01*
X101773302Y-43214366D01*
X101553511Y-43273258D01*
X101553502Y-43273261D01*
X101347267Y-43369431D01*
X101347265Y-43369432D01*
X101160858Y-43499954D01*
X100999954Y-43660858D01*
X100869432Y-43847265D01*
X100869431Y-43847267D01*
X100773261Y-44053502D01*
X100773258Y-44053511D01*
X100714366Y-44273302D01*
X100714364Y-44273313D01*
X100694532Y-44499998D01*
X97305468Y-44499998D01*
X97285635Y-44273308D01*
X97226739Y-44053504D01*
X97130568Y-43847266D01*
X97000047Y-43660861D01*
X97000045Y-43660858D01*
X96839141Y-43499954D01*
X96652734Y-43369432D01*
X96652732Y-43369431D01*
X96446497Y-43273261D01*
X96446488Y-43273258D01*
X96226697Y-43214366D01*
X96226693Y-43214365D01*
X96226692Y-43214365D01*
X96226691Y-43214364D01*
X96226686Y-43214364D01*
X96000002Y-43194532D01*
X95999998Y-43194532D01*
X95773313Y-43214364D01*
X95773302Y-43214366D01*
X95553511Y-43273258D01*
X95553502Y-43273261D01*
X95347267Y-43369431D01*
X95347265Y-43369432D01*
X95160858Y-43499954D01*
X94999954Y-43660858D01*
X94869432Y-43847265D01*
X94869431Y-43847267D01*
X94773261Y-44053502D01*
X94773258Y-44053511D01*
X94714366Y-44273302D01*
X94714364Y-44273313D01*
X94694532Y-44499998D01*
X91805468Y-44499998D01*
X91785635Y-44273308D01*
X91726739Y-44053504D01*
X91630568Y-43847266D01*
X91500047Y-43660861D01*
X91500045Y-43660858D01*
X91339141Y-43499954D01*
X91152734Y-43369432D01*
X91152732Y-43369431D01*
X90946497Y-43273261D01*
X90946488Y-43273258D01*
X90726697Y-43214366D01*
X90726693Y-43214365D01*
X90726692Y-43214365D01*
X90726691Y-43214364D01*
X90726686Y-43214364D01*
X90500002Y-43194532D01*
X90499998Y-43194532D01*
X90273313Y-43214364D01*
X90273302Y-43214366D01*
X90053511Y-43273258D01*
X90053502Y-43273261D01*
X89847267Y-43369431D01*
X89847265Y-43369432D01*
X89660858Y-43499954D01*
X89499954Y-43660858D01*
X89369432Y-43847265D01*
X89369431Y-43847267D01*
X89273261Y-44053502D01*
X89273258Y-44053511D01*
X89214366Y-44273302D01*
X89214364Y-44273313D01*
X89194532Y-44499998D01*
X86305468Y-44499998D01*
X86285635Y-44273308D01*
X86226739Y-44053504D01*
X86130568Y-43847266D01*
X86000047Y-43660861D01*
X86000045Y-43660858D01*
X85839141Y-43499954D01*
X85652734Y-43369432D01*
X85652732Y-43369431D01*
X85446497Y-43273261D01*
X85446488Y-43273258D01*
X85226697Y-43214366D01*
X85226693Y-43214365D01*
X85226692Y-43214365D01*
X85226691Y-43214364D01*
X85226686Y-43214364D01*
X85000002Y-43194532D01*
X84999998Y-43194532D01*
X84773313Y-43214364D01*
X84773302Y-43214366D01*
X84553511Y-43273258D01*
X84553502Y-43273261D01*
X84347267Y-43369431D01*
X84347265Y-43369432D01*
X84160858Y-43499954D01*
X83999954Y-43660858D01*
X83869432Y-43847265D01*
X83869431Y-43847267D01*
X83773261Y-44053502D01*
X83773258Y-44053511D01*
X83714366Y-44273302D01*
X83714364Y-44273313D01*
X83694532Y-44499998D01*
X65262499Y-44499998D01*
X65262499Y-44350028D01*
X65262498Y-44350013D01*
X65252005Y-44247302D01*
X65196858Y-44080880D01*
X65196856Y-44080875D01*
X65104815Y-43931654D01*
X64980845Y-43807684D01*
X64831624Y-43715643D01*
X64831619Y-43715641D01*
X64665197Y-43660494D01*
X64665190Y-43660493D01*
X64562486Y-43650000D01*
X63162500Y-43650000D01*
X63162500Y-44575000D01*
X62662500Y-44575000D01*
X62662500Y-43650000D01*
X61262528Y-43650000D01*
X61262512Y-43650001D01*
X61159798Y-43660494D01*
X61153181Y-43661911D01*
X61152695Y-43659643D01*
X61093650Y-43661662D01*
X61033616Y-43625918D01*
X61002437Y-43563391D01*
X61000500Y-43541561D01*
X61000500Y-41799994D01*
X69072354Y-41799994D01*
X69072354Y-41800005D01*
X69090904Y-42023869D01*
X69146050Y-42241639D01*
X69236287Y-42447359D01*
X69308809Y-42558361D01*
X69359154Y-42635419D01*
X69511298Y-42800692D01*
X69511301Y-42800694D01*
X69511304Y-42800697D01*
X69688562Y-42938663D01*
X69688569Y-42938667D01*
X69688571Y-42938669D01*
X69886136Y-43045585D01*
X70098604Y-43118526D01*
X70320180Y-43155500D01*
X70544820Y-43155500D01*
X70766396Y-43118526D01*
X70978864Y-43045585D01*
X71063109Y-42999994D01*
X74172354Y-42999994D01*
X74172354Y-43000005D01*
X74190904Y-43223869D01*
X74246050Y-43441639D01*
X74336287Y-43647359D01*
X74380900Y-43715643D01*
X74459154Y-43835419D01*
X74611298Y-44000692D01*
X74611301Y-44000694D01*
X74611304Y-44000697D01*
X74788562Y-44138663D01*
X74788569Y-44138667D01*
X74788571Y-44138669D01*
X74986136Y-44245585D01*
X75198604Y-44318526D01*
X75420180Y-44355500D01*
X75644820Y-44355500D01*
X75866396Y-44318526D01*
X76078864Y-44245585D01*
X76276429Y-44138669D01*
X76453702Y-44000692D01*
X76605846Y-43835419D01*
X76728713Y-43647358D01*
X76818950Y-43441639D01*
X76874095Y-43223873D01*
X76882825Y-43118525D01*
X76892646Y-43000005D01*
X76892646Y-42999994D01*
X76876131Y-42800694D01*
X76874095Y-42776127D01*
X76818950Y-42558361D01*
X76728713Y-42352642D01*
X76605846Y-42164581D01*
X76453702Y-41999308D01*
X76453697Y-41999304D01*
X76453695Y-41999302D01*
X76276437Y-41861336D01*
X76276426Y-41861329D01*
X76078870Y-41754418D01*
X76078867Y-41754417D01*
X76078864Y-41754415D01*
X76078858Y-41754413D01*
X76078856Y-41754412D01*
X75866398Y-41681474D01*
X75644820Y-41644500D01*
X75420180Y-41644500D01*
X75198601Y-41681474D01*
X74986143Y-41754412D01*
X74986129Y-41754418D01*
X74788573Y-41861329D01*
X74788562Y-41861336D01*
X74611304Y-41999302D01*
X74611301Y-41999305D01*
X74459155Y-42164579D01*
X74459152Y-42164583D01*
X74336287Y-42352640D01*
X74246050Y-42558360D01*
X74190904Y-42776130D01*
X74172354Y-42999994D01*
X71063109Y-42999994D01*
X71176429Y-42938669D01*
X71353702Y-42800692D01*
X71505846Y-42635419D01*
X71628713Y-42447358D01*
X71718950Y-42241639D01*
X71774095Y-42023873D01*
X71782339Y-41924373D01*
X71792646Y-41800005D01*
X71792646Y-41799994D01*
X71774095Y-41576130D01*
X71774095Y-41576127D01*
X71718950Y-41358361D01*
X71628713Y-41152642D01*
X71607538Y-41120232D01*
X71505847Y-40964583D01*
X71505846Y-40964581D01*
X71353702Y-40799308D01*
X71353697Y-40799304D01*
X71353695Y-40799302D01*
X71176437Y-40661336D01*
X71176426Y-40661329D01*
X70978870Y-40554418D01*
X70978867Y-40554417D01*
X70978864Y-40554415D01*
X70978858Y-40554413D01*
X70978856Y-40554412D01*
X70766398Y-40481474D01*
X70544820Y-40444500D01*
X70320180Y-40444500D01*
X70098601Y-40481474D01*
X69886143Y-40554412D01*
X69886129Y-40554418D01*
X69688573Y-40661329D01*
X69688562Y-40661336D01*
X69511304Y-40799302D01*
X69511301Y-40799305D01*
X69359155Y-40964579D01*
X69359152Y-40964583D01*
X69236287Y-41152640D01*
X69146050Y-41358360D01*
X69090904Y-41576130D01*
X69072354Y-41799994D01*
X61000500Y-41799994D01*
X61000500Y-40458437D01*
X61007383Y-40434998D01*
X80694532Y-40434998D01*
X80694532Y-40435001D01*
X80714364Y-40661686D01*
X80714366Y-40661697D01*
X80773258Y-40881488D01*
X80773261Y-40881497D01*
X80869431Y-41087732D01*
X80869432Y-41087734D01*
X80999954Y-41274141D01*
X81160858Y-41435045D01*
X81160861Y-41435047D01*
X81347266Y-41565568D01*
X81553504Y-41661739D01*
X81773308Y-41720635D01*
X81935230Y-41734801D01*
X81999998Y-41740468D01*
X82000000Y-41740468D01*
X82000002Y-41740468D01*
X82056673Y-41735509D01*
X82226692Y-41720635D01*
X82446496Y-41661739D01*
X82652734Y-41565568D01*
X82839139Y-41435047D01*
X83000047Y-41274139D01*
X83130568Y-41087734D01*
X83226739Y-40881496D01*
X83285635Y-40661692D01*
X83305468Y-40435000D01*
X83305468Y-40434998D01*
X89194532Y-40434998D01*
X89194532Y-40435001D01*
X89214364Y-40661686D01*
X89214366Y-40661697D01*
X89273258Y-40881488D01*
X89273261Y-40881497D01*
X89369431Y-41087732D01*
X89369432Y-41087734D01*
X89499954Y-41274141D01*
X89660858Y-41435045D01*
X89660861Y-41435047D01*
X89847266Y-41565568D01*
X90053504Y-41661739D01*
X90273308Y-41720635D01*
X90435230Y-41734801D01*
X90499998Y-41740468D01*
X90500000Y-41740468D01*
X90500002Y-41740468D01*
X90556673Y-41735509D01*
X90726692Y-41720635D01*
X90946496Y-41661739D01*
X91152734Y-41565568D01*
X91339139Y-41435047D01*
X91500047Y-41274139D01*
X91630568Y-41087734D01*
X91726739Y-40881496D01*
X91785635Y-40661692D01*
X91802625Y-40467498D01*
X93259532Y-40467498D01*
X93259532Y-40467501D01*
X93279364Y-40694186D01*
X93279366Y-40694197D01*
X93338258Y-40913988D01*
X93338261Y-40913997D01*
X93434431Y-41120232D01*
X93434432Y-41120234D01*
X93564954Y-41306641D01*
X93725858Y-41467545D01*
X93725861Y-41467547D01*
X93912266Y-41598068D01*
X94118504Y-41694239D01*
X94338308Y-41753135D01*
X94500230Y-41767301D01*
X94564998Y-41772968D01*
X94565000Y-41772968D01*
X94565002Y-41772968D01*
X94621673Y-41768009D01*
X94791692Y-41753135D01*
X95011496Y-41694239D01*
X95217734Y-41598068D01*
X95404139Y-41467547D01*
X95565047Y-41306639D01*
X95695568Y-41120234D01*
X95791739Y-40913996D01*
X95850635Y-40694192D01*
X95870468Y-40467500D01*
X95870468Y-40467498D01*
X101759532Y-40467498D01*
X101759532Y-40467501D01*
X101779364Y-40694186D01*
X101779366Y-40694197D01*
X101838258Y-40913988D01*
X101838261Y-40913997D01*
X101934431Y-41120232D01*
X101934432Y-41120234D01*
X102064954Y-41306641D01*
X102225858Y-41467545D01*
X102225861Y-41467547D01*
X102412266Y-41598068D01*
X102618504Y-41694239D01*
X102838308Y-41753135D01*
X103000230Y-41767301D01*
X103064998Y-41772968D01*
X103065000Y-41772968D01*
X103065002Y-41772968D01*
X103121673Y-41768009D01*
X103291692Y-41753135D01*
X103511496Y-41694239D01*
X103717734Y-41598068D01*
X103904139Y-41467547D01*
X104065047Y-41306639D01*
X104195568Y-41120234D01*
X104291739Y-40913996D01*
X104350635Y-40694192D01*
X104370468Y-40467500D01*
X104367760Y-40436553D01*
X104359166Y-40338322D01*
X104350635Y-40240808D01*
X104291739Y-40021004D01*
X104195568Y-39814766D01*
X104080189Y-39649986D01*
X109737501Y-39649986D01*
X109747994Y-39752697D01*
X109803141Y-39919119D01*
X109803143Y-39919124D01*
X109895184Y-40068345D01*
X110019154Y-40192315D01*
X110168375Y-40284356D01*
X110168380Y-40284358D01*
X110334802Y-40339505D01*
X110334809Y-40339506D01*
X110437519Y-40349999D01*
X111837499Y-40349999D01*
X111837500Y-40349998D01*
X111837500Y-39425000D01*
X109737501Y-39425000D01*
X109737501Y-39649986D01*
X104080189Y-39649986D01*
X104065047Y-39628361D01*
X104065045Y-39628358D01*
X103904141Y-39467454D01*
X103717734Y-39336932D01*
X103717732Y-39336931D01*
X103511497Y-39240761D01*
X103511488Y-39240758D01*
X103291697Y-39181866D01*
X103291693Y-39181865D01*
X103291692Y-39181865D01*
X103291691Y-39181864D01*
X103291686Y-39181864D01*
X103065002Y-39162032D01*
X103064998Y-39162032D01*
X102838313Y-39181864D01*
X102838302Y-39181866D01*
X102618511Y-39240758D01*
X102618502Y-39240761D01*
X102412267Y-39336931D01*
X102412265Y-39336932D01*
X102225858Y-39467454D01*
X102064954Y-39628358D01*
X101934432Y-39814765D01*
X101934431Y-39814767D01*
X101838261Y-40021002D01*
X101838258Y-40021011D01*
X101779366Y-40240802D01*
X101779364Y-40240813D01*
X101759532Y-40467498D01*
X95870468Y-40467498D01*
X95867760Y-40436553D01*
X95859166Y-40338322D01*
X95850635Y-40240808D01*
X95791739Y-40021004D01*
X95695568Y-39814766D01*
X95565047Y-39628361D01*
X95565045Y-39628358D01*
X95404141Y-39467454D01*
X95217734Y-39336932D01*
X95217732Y-39336931D01*
X95011497Y-39240761D01*
X95011488Y-39240758D01*
X94791697Y-39181866D01*
X94791693Y-39181865D01*
X94791692Y-39181865D01*
X94791691Y-39181864D01*
X94791686Y-39181864D01*
X94565002Y-39162032D01*
X94564998Y-39162032D01*
X94338313Y-39181864D01*
X94338302Y-39181866D01*
X94118511Y-39240758D01*
X94118502Y-39240761D01*
X93912267Y-39336931D01*
X93912265Y-39336932D01*
X93725858Y-39467454D01*
X93564954Y-39628358D01*
X93434432Y-39814765D01*
X93434431Y-39814767D01*
X93338261Y-40021002D01*
X93338258Y-40021011D01*
X93279366Y-40240802D01*
X93279364Y-40240813D01*
X93259532Y-40467498D01*
X91802625Y-40467498D01*
X91805468Y-40435000D01*
X91785635Y-40208308D01*
X91726739Y-39988504D01*
X91630568Y-39782266D01*
X91500047Y-39595861D01*
X91500045Y-39595858D01*
X91339141Y-39434954D01*
X91152734Y-39304432D01*
X91152732Y-39304431D01*
X90946497Y-39208261D01*
X90946488Y-39208258D01*
X90726697Y-39149366D01*
X90726693Y-39149365D01*
X90726692Y-39149365D01*
X90726691Y-39149364D01*
X90726686Y-39149364D01*
X90500002Y-39129532D01*
X90499998Y-39129532D01*
X90273313Y-39149364D01*
X90273302Y-39149366D01*
X90053511Y-39208258D01*
X90053502Y-39208261D01*
X89847267Y-39304431D01*
X89847265Y-39304432D01*
X89660858Y-39434954D01*
X89499954Y-39595858D01*
X89369432Y-39782265D01*
X89369431Y-39782267D01*
X89273261Y-39988502D01*
X89273258Y-39988511D01*
X89214366Y-40208302D01*
X89214364Y-40208313D01*
X89194532Y-40434998D01*
X83305468Y-40434998D01*
X83285635Y-40208308D01*
X83226739Y-39988504D01*
X83130568Y-39782266D01*
X83000047Y-39595861D01*
X83000045Y-39595858D01*
X82839141Y-39434954D01*
X82652734Y-39304432D01*
X82652732Y-39304431D01*
X82446497Y-39208261D01*
X82446488Y-39208258D01*
X82226697Y-39149366D01*
X82226693Y-39149365D01*
X82226692Y-39149365D01*
X82226691Y-39149364D01*
X82226686Y-39149364D01*
X82000002Y-39129532D01*
X81999998Y-39129532D01*
X81773313Y-39149364D01*
X81773302Y-39149366D01*
X81553511Y-39208258D01*
X81553502Y-39208261D01*
X81347267Y-39304431D01*
X81347265Y-39304432D01*
X81160858Y-39434954D01*
X80999954Y-39595858D01*
X80869432Y-39782265D01*
X80869431Y-39782267D01*
X80773261Y-39988502D01*
X80773258Y-39988511D01*
X80714366Y-40208302D01*
X80714364Y-40208313D01*
X80694532Y-40434998D01*
X61007383Y-40434998D01*
X61020185Y-40391398D01*
X61072989Y-40345643D01*
X61142147Y-40335699D01*
X61153145Y-40338291D01*
X61153189Y-40338089D01*
X61159809Y-40339506D01*
X61262519Y-40349999D01*
X62662499Y-40349999D01*
X63162500Y-40349999D01*
X64562472Y-40349999D01*
X64562486Y-40349998D01*
X64665197Y-40339505D01*
X64831619Y-40284358D01*
X64831624Y-40284356D01*
X64980845Y-40192315D01*
X65104815Y-40068345D01*
X65196856Y-39919124D01*
X65196858Y-39919119D01*
X65252005Y-39752697D01*
X65252006Y-39752690D01*
X65262499Y-39649986D01*
X65262500Y-39649973D01*
X65262500Y-39425000D01*
X63162500Y-39425000D01*
X63162500Y-40349999D01*
X62662499Y-40349999D01*
X62662500Y-40349998D01*
X62662500Y-38925000D01*
X63162500Y-38925000D01*
X65262499Y-38925000D01*
X65262499Y-38700028D01*
X65262498Y-38700013D01*
X109737500Y-38700013D01*
X109737500Y-38925000D01*
X111837500Y-38925000D01*
X111837500Y-38000000D01*
X110437528Y-38000000D01*
X110437512Y-38000001D01*
X110334802Y-38010494D01*
X110168380Y-38065641D01*
X110168375Y-38065643D01*
X110019154Y-38157684D01*
X109895184Y-38281654D01*
X109803143Y-38430875D01*
X109803141Y-38430880D01*
X109747994Y-38597302D01*
X109747993Y-38597309D01*
X109737500Y-38700013D01*
X65262498Y-38700013D01*
X65252005Y-38597302D01*
X65196858Y-38430880D01*
X65196856Y-38430875D01*
X65104815Y-38281654D01*
X64980845Y-38157684D01*
X64831624Y-38065643D01*
X64831619Y-38065641D01*
X64665197Y-38010494D01*
X64665190Y-38010493D01*
X64562486Y-38000000D01*
X63162500Y-38000000D01*
X63162500Y-38925000D01*
X62662500Y-38925000D01*
X62662500Y-38000000D01*
X61262528Y-38000000D01*
X61262512Y-38000001D01*
X61159798Y-38010494D01*
X61153181Y-38011911D01*
X61152695Y-38009643D01*
X61093650Y-38011662D01*
X61033616Y-37975918D01*
X61002437Y-37913391D01*
X61000500Y-37891561D01*
X61000500Y-34550862D01*
X61020185Y-34483823D01*
X61033340Y-34467498D01*
X80694532Y-34467498D01*
X80694532Y-34467501D01*
X80714364Y-34694186D01*
X80714366Y-34694197D01*
X80773258Y-34913988D01*
X80773261Y-34913997D01*
X80869431Y-35120232D01*
X80869432Y-35120234D01*
X80999954Y-35306641D01*
X81160858Y-35467545D01*
X81160861Y-35467547D01*
X81347266Y-35598068D01*
X81553504Y-35694239D01*
X81773308Y-35753135D01*
X81935230Y-35767301D01*
X81999998Y-35772968D01*
X82000000Y-35772968D01*
X82000002Y-35772968D01*
X82056673Y-35768009D01*
X82226692Y-35753135D01*
X82446496Y-35694239D01*
X82652734Y-35598068D01*
X82839139Y-35467547D01*
X83000047Y-35306639D01*
X83130568Y-35120234D01*
X83226739Y-34913996D01*
X83285635Y-34694192D01*
X83305468Y-34467500D01*
X83305468Y-34467498D01*
X89194532Y-34467498D01*
X89194532Y-34467501D01*
X89214364Y-34694186D01*
X89214366Y-34694197D01*
X89273258Y-34913988D01*
X89273261Y-34913997D01*
X89369431Y-35120232D01*
X89369432Y-35120234D01*
X89499954Y-35306641D01*
X89660858Y-35467545D01*
X89660861Y-35467547D01*
X89847266Y-35598068D01*
X90053504Y-35694239D01*
X90273308Y-35753135D01*
X90435230Y-35767301D01*
X90499998Y-35772968D01*
X90500000Y-35772968D01*
X90500002Y-35772968D01*
X90556673Y-35768009D01*
X90726692Y-35753135D01*
X90946496Y-35694239D01*
X91152734Y-35598068D01*
X91339139Y-35467547D01*
X91500047Y-35306639D01*
X91630568Y-35120234D01*
X91726739Y-34913996D01*
X91785635Y-34694192D01*
X91802625Y-34499998D01*
X93259532Y-34499998D01*
X93259532Y-34500001D01*
X93279364Y-34726686D01*
X93279366Y-34726697D01*
X93338258Y-34946488D01*
X93338261Y-34946497D01*
X93434431Y-35152732D01*
X93434432Y-35152734D01*
X93564954Y-35339141D01*
X93725858Y-35500045D01*
X93725861Y-35500047D01*
X93912266Y-35630568D01*
X94118504Y-35726739D01*
X94338308Y-35785635D01*
X94500230Y-35799801D01*
X94564998Y-35805468D01*
X94565000Y-35805468D01*
X94565002Y-35805468D01*
X94621673Y-35800509D01*
X94791692Y-35785635D01*
X95011496Y-35726739D01*
X95217734Y-35630568D01*
X95404139Y-35500047D01*
X95565047Y-35339139D01*
X95695568Y-35152734D01*
X95791739Y-34946496D01*
X95850635Y-34726692D01*
X95870468Y-34500000D01*
X95870468Y-34499998D01*
X101759532Y-34499998D01*
X101759532Y-34500001D01*
X101779364Y-34726686D01*
X101779366Y-34726697D01*
X101838258Y-34946488D01*
X101838261Y-34946497D01*
X101934431Y-35152732D01*
X101934432Y-35152734D01*
X102064954Y-35339141D01*
X102225858Y-35500045D01*
X102225861Y-35500047D01*
X102412266Y-35630568D01*
X102618504Y-35726739D01*
X102838308Y-35785635D01*
X103000230Y-35799801D01*
X103064998Y-35805468D01*
X103065000Y-35805468D01*
X103065002Y-35805468D01*
X103121673Y-35800509D01*
X103291692Y-35785635D01*
X103511496Y-35726739D01*
X103717734Y-35630568D01*
X103904139Y-35500047D01*
X104065047Y-35339139D01*
X104195568Y-35152734D01*
X104291739Y-34946496D01*
X104350635Y-34726692D01*
X104370468Y-34500000D01*
X104367624Y-34467498D01*
X104350635Y-34273313D01*
X104350635Y-34273308D01*
X104291739Y-34053504D01*
X104195568Y-33847266D01*
X104065047Y-33660861D01*
X104065045Y-33660858D01*
X103904141Y-33499954D01*
X103717734Y-33369432D01*
X103717732Y-33369431D01*
X103511497Y-33273261D01*
X103511488Y-33273258D01*
X103291697Y-33214366D01*
X103291693Y-33214365D01*
X103291692Y-33214365D01*
X103291691Y-33214364D01*
X103291686Y-33214364D01*
X103065002Y-33194532D01*
X103064998Y-33194532D01*
X102838313Y-33214364D01*
X102838302Y-33214366D01*
X102618511Y-33273258D01*
X102618502Y-33273261D01*
X102412267Y-33369431D01*
X102412265Y-33369432D01*
X102225858Y-33499954D01*
X102064954Y-33660858D01*
X101934432Y-33847265D01*
X101934431Y-33847267D01*
X101838261Y-34053502D01*
X101838258Y-34053511D01*
X101779366Y-34273302D01*
X101779364Y-34273313D01*
X101759532Y-34499998D01*
X95870468Y-34499998D01*
X95867624Y-34467498D01*
X95850635Y-34273313D01*
X95850635Y-34273308D01*
X95791739Y-34053504D01*
X95695568Y-33847266D01*
X95565047Y-33660861D01*
X95565045Y-33660858D01*
X95404141Y-33499954D01*
X95217734Y-33369432D01*
X95217732Y-33369431D01*
X95011497Y-33273261D01*
X95011488Y-33273258D01*
X94791697Y-33214366D01*
X94791693Y-33214365D01*
X94791692Y-33214365D01*
X94791691Y-33214364D01*
X94791686Y-33214364D01*
X94565002Y-33194532D01*
X94564998Y-33194532D01*
X94338313Y-33214364D01*
X94338302Y-33214366D01*
X94118511Y-33273258D01*
X94118502Y-33273261D01*
X93912267Y-33369431D01*
X93912265Y-33369432D01*
X93725858Y-33499954D01*
X93564954Y-33660858D01*
X93434432Y-33847265D01*
X93434431Y-33847267D01*
X93338261Y-34053502D01*
X93338258Y-34053511D01*
X93279366Y-34273302D01*
X93279364Y-34273313D01*
X93259532Y-34499998D01*
X91802625Y-34499998D01*
X91805468Y-34467500D01*
X91785635Y-34240808D01*
X91726739Y-34021004D01*
X91630568Y-33814766D01*
X91500047Y-33628361D01*
X91500045Y-33628358D01*
X91339141Y-33467454D01*
X91152734Y-33336932D01*
X91152732Y-33336931D01*
X90946497Y-33240761D01*
X90946488Y-33240758D01*
X90726697Y-33181866D01*
X90726693Y-33181865D01*
X90726692Y-33181865D01*
X90726691Y-33181864D01*
X90726686Y-33181864D01*
X90500002Y-33162032D01*
X90499998Y-33162032D01*
X90273313Y-33181864D01*
X90273302Y-33181866D01*
X90053511Y-33240758D01*
X90053502Y-33240761D01*
X89847267Y-33336931D01*
X89847265Y-33336932D01*
X89660858Y-33467454D01*
X89499954Y-33628358D01*
X89369432Y-33814765D01*
X89369431Y-33814767D01*
X89273261Y-34021002D01*
X89273258Y-34021011D01*
X89214366Y-34240802D01*
X89214364Y-34240813D01*
X89194532Y-34467498D01*
X83305468Y-34467498D01*
X83285635Y-34240808D01*
X83226739Y-34021004D01*
X83130568Y-33814766D01*
X83000047Y-33628361D01*
X83000045Y-33628358D01*
X82839141Y-33467454D01*
X82652734Y-33336932D01*
X82652732Y-33336931D01*
X82446497Y-33240761D01*
X82446488Y-33240758D01*
X82226697Y-33181866D01*
X82226693Y-33181865D01*
X82226692Y-33181865D01*
X82226691Y-33181864D01*
X82226686Y-33181864D01*
X82000002Y-33162032D01*
X81999998Y-33162032D01*
X81773313Y-33181864D01*
X81773302Y-33181866D01*
X81553511Y-33240758D01*
X81553502Y-33240761D01*
X81347267Y-33336931D01*
X81347265Y-33336932D01*
X81160858Y-33467454D01*
X80999954Y-33628358D01*
X80869432Y-33814765D01*
X80869431Y-33814767D01*
X80773261Y-34021002D01*
X80773258Y-34021011D01*
X80714366Y-34240802D01*
X80714364Y-34240813D01*
X80694532Y-34467498D01*
X61033340Y-34467498D01*
X61036819Y-34463181D01*
X61963681Y-33536319D01*
X62025004Y-33502834D01*
X62051362Y-33500000D01*
X66999999Y-33500000D01*
X67000000Y-33500000D01*
X69000000Y-32000000D01*
X69000000Y-26562000D01*
X69019685Y-26494961D01*
X69049600Y-26462800D01*
X70299600Y-25525300D01*
X70365042Y-25500824D01*
X70374000Y-25500500D01*
X104949138Y-25500500D01*
X105016177Y-25520185D01*
G37*
%TD.AperFunction*%
%TD*%
M02*
