%TF.GenerationSoftware,KiCad,Pcbnew,8.0.5*%
%TF.CreationDate,2024-10-08T18:50:19+09:00*%
%TF.ProjectId,ATT_24dB,4154545f-3234-4644-922e-6b696361645f,rev?*%
%TF.SameCoordinates,Original*%
%TF.FileFunction,Drillmap*%
%TF.FilePolarity,Positive*%
%FSLAX45Y45*%
G04 Gerber Fmt 4.5, Leading zero omitted, Abs format (unit mm)*
G04 Created by KiCad (PCBNEW 8.0.5) date 2024-10-08 18:50:19*
%MOMM*%
%LPD*%
G01*
G04 APERTURE LIST*
%ADD10C,0.050000*%
%ADD11C,0.200000*%
%ADD12C,0.100000*%
G04 APERTURE END LIST*
D10*
X6050000Y-2500000D02*
X11450000Y-2500000D01*
X11450000Y-5800000D01*
X6050000Y-5800000D01*
X6050000Y-2500000D01*
D11*
D12*
X6335000Y-3435000D02*
X6365000Y-3465000D01*
X6365000Y-3435000D02*
X6335000Y-3465000D01*
X6585000Y-3435000D02*
X6615000Y-3465000D01*
X6615000Y-3435000D02*
X6585000Y-3465000D01*
X6635000Y-3885000D02*
X6665000Y-3915000D01*
X6665000Y-3885000D02*
X6635000Y-3915000D01*
X6635000Y-4535000D02*
X6665000Y-4565000D01*
X6665000Y-4535000D02*
X6635000Y-4565000D01*
X6635000Y-4735000D02*
X6665000Y-4765000D01*
X6665000Y-4735000D02*
X6635000Y-4765000D01*
X6835000Y-3435000D02*
X6865000Y-3465000D01*
X6865000Y-3435000D02*
X6835000Y-3465000D01*
X6835000Y-4535000D02*
X6865000Y-4565000D01*
X6865000Y-4535000D02*
X6835000Y-4565000D01*
X7035000Y-4535000D02*
X7065000Y-4565000D01*
X7065000Y-4535000D02*
X7035000Y-4565000D01*
X7077000Y-3435000D02*
X7107000Y-3465000D01*
X7107000Y-3435000D02*
X7077000Y-3465000D01*
X7077000Y-3689000D02*
X7107000Y-3719000D01*
X7107000Y-3689000D02*
X7077000Y-3719000D01*
X7131000Y-2685000D02*
X7161000Y-2715000D01*
X7161000Y-2685000D02*
X7131000Y-2715000D01*
X7331000Y-3435000D02*
X7361000Y-3465000D01*
X7361000Y-3435000D02*
X7331000Y-3465000D01*
X7331000Y-3689000D02*
X7361000Y-3719000D01*
X7361000Y-3689000D02*
X7331000Y-3719000D01*
X7385000Y-2685000D02*
X7415000Y-2715000D01*
X7415000Y-2685000D02*
X7385000Y-2715000D01*
X7585000Y-3435000D02*
X7615000Y-3465000D01*
X7615000Y-3435000D02*
X7585000Y-3465000D01*
X7585000Y-3689000D02*
X7615000Y-3719000D01*
X7615000Y-3689000D02*
X7585000Y-3719000D01*
X7585000Y-4535000D02*
X7615000Y-4565000D01*
X7615000Y-4535000D02*
X7585000Y-4565000D01*
X7627000Y-2685000D02*
X7657000Y-2715000D01*
X7657000Y-2685000D02*
X7627000Y-2715000D01*
X7835000Y-3935000D02*
X7865000Y-3965000D01*
X7865000Y-3935000D02*
X7835000Y-3965000D01*
X7835000Y-4535000D02*
X7865000Y-4565000D01*
X7865000Y-4535000D02*
X7835000Y-4565000D01*
X7839000Y-3435000D02*
X7869000Y-3465000D01*
X7869000Y-3435000D02*
X7839000Y-3465000D01*
X7839000Y-3689000D02*
X7869000Y-3719000D01*
X7869000Y-3689000D02*
X7839000Y-3719000D01*
X7881000Y-2685000D02*
X7911000Y-2715000D01*
X7911000Y-2685000D02*
X7881000Y-2715000D01*
X8135000Y-2685000D02*
X8165000Y-2715000D01*
X8165000Y-2685000D02*
X8135000Y-2715000D01*
X8135000Y-3185000D02*
X8165000Y-3215000D01*
X8165000Y-3185000D02*
X8135000Y-3215000D01*
X8385000Y-2685000D02*
X8415000Y-2715000D01*
X8415000Y-2685000D02*
X8385000Y-2715000D01*
X8385000Y-2939000D02*
X8415000Y-2969000D01*
X8415000Y-2939000D02*
X8385000Y-2969000D01*
X8385000Y-3185000D02*
X8415000Y-3215000D01*
X8415000Y-3185000D02*
X8385000Y-3215000D01*
X8619000Y-5535000D02*
X8649000Y-5565000D01*
X8649000Y-5535000D02*
X8619000Y-5565000D01*
X8639000Y-2685000D02*
X8669000Y-2715000D01*
X8669000Y-2685000D02*
X8639000Y-2715000D01*
X8639000Y-2939000D02*
X8669000Y-2969000D01*
X8669000Y-2939000D02*
X8639000Y-2969000D01*
X8735000Y-5285000D02*
X8765000Y-5315000D01*
X8765000Y-5285000D02*
X8735000Y-5315000D01*
X8873000Y-5535000D02*
X8903000Y-5565000D01*
X8903000Y-5535000D02*
X8873000Y-5565000D01*
X8885000Y-3735000D02*
X8915000Y-3765000D01*
X8915000Y-3735000D02*
X8885000Y-3765000D01*
X8893000Y-2685000D02*
X8923000Y-2715000D01*
X8923000Y-2685000D02*
X8893000Y-2715000D01*
X8893000Y-2939000D02*
X8923000Y-2969000D01*
X8923000Y-2939000D02*
X8893000Y-2969000D01*
X9035000Y-3185000D02*
X9065000Y-3215000D01*
X9065000Y-3185000D02*
X9035000Y-3215000D01*
X9127000Y-5535000D02*
X9157000Y-5565000D01*
X9157000Y-5535000D02*
X9127000Y-5565000D01*
X9135000Y-3735000D02*
X9165000Y-3765000D01*
X9165000Y-3735000D02*
X9135000Y-3765000D01*
X9147000Y-2685000D02*
X9177000Y-2715000D01*
X9177000Y-2685000D02*
X9147000Y-2715000D01*
X9147000Y-2939000D02*
X9177000Y-2969000D01*
X9177000Y-2939000D02*
X9147000Y-2969000D01*
X9285000Y-3185000D02*
X9315000Y-3215000D01*
X9315000Y-3185000D02*
X9285000Y-3215000D01*
X9285000Y-4285000D02*
X9315000Y-4315000D01*
X9315000Y-4285000D02*
X9285000Y-4315000D01*
X9285000Y-5285000D02*
X9315000Y-5315000D01*
X9315000Y-5285000D02*
X9285000Y-5315000D01*
X9381000Y-5535000D02*
X9411000Y-5565000D01*
X9411000Y-5535000D02*
X9381000Y-5565000D01*
X9385000Y-3735000D02*
X9415000Y-3765000D01*
X9415000Y-3735000D02*
X9385000Y-3765000D01*
X9401000Y-2685000D02*
X9431000Y-2715000D01*
X9431000Y-2685000D02*
X9401000Y-2715000D01*
X9401000Y-2939000D02*
X9431000Y-2969000D01*
X9431000Y-2939000D02*
X9401000Y-2969000D01*
X9535000Y-3185000D02*
X9565000Y-3215000D01*
X9565000Y-3185000D02*
X9535000Y-3215000D01*
X9635000Y-5535000D02*
X9665000Y-5565000D01*
X9665000Y-5535000D02*
X9635000Y-5565000D01*
X9655000Y-2685000D02*
X9685000Y-2715000D01*
X9685000Y-2685000D02*
X9655000Y-2715000D01*
X9655000Y-2939000D02*
X9685000Y-2969000D01*
X9685000Y-2939000D02*
X9655000Y-2969000D01*
X9885000Y-5285000D02*
X9915000Y-5315000D01*
X9915000Y-5285000D02*
X9885000Y-5315000D01*
X9889000Y-5535000D02*
X9919000Y-5565000D01*
X9919000Y-5535000D02*
X9889000Y-5565000D01*
X9909000Y-2685000D02*
X9939000Y-2715000D01*
X9939000Y-2685000D02*
X9909000Y-2715000D01*
X9909000Y-2939000D02*
X9939000Y-2969000D01*
X9939000Y-2939000D02*
X9909000Y-2969000D01*
X10143000Y-5535000D02*
X10173000Y-5565000D01*
X10173000Y-5535000D02*
X10143000Y-5565000D01*
X10163000Y-2685000D02*
X10193000Y-2715000D01*
X10193000Y-2685000D02*
X10163000Y-2715000D01*
X10163000Y-2939000D02*
X10193000Y-2969000D01*
X10193000Y-2939000D02*
X10163000Y-2969000D01*
X10185000Y-3185000D02*
X10215000Y-3215000D01*
X10215000Y-3185000D02*
X10185000Y-3215000D01*
X10385000Y-2685000D02*
X10415000Y-2715000D01*
X10415000Y-2685000D02*
X10385000Y-2715000D01*
X10385000Y-2935000D02*
X10415000Y-2965000D01*
X10415000Y-2935000D02*
X10385000Y-2965000D01*
X10385000Y-3185000D02*
X10415000Y-3215000D01*
X10415000Y-3185000D02*
X10385000Y-3215000D01*
X10385000Y-5535000D02*
X10415000Y-5565000D01*
X10415000Y-5535000D02*
X10385000Y-5565000D01*
X10435000Y-5285000D02*
X10465000Y-5315000D01*
X10465000Y-5285000D02*
X10435000Y-5315000D01*
X10531000Y-3885000D02*
X10561000Y-3915000D01*
X10561000Y-3885000D02*
X10531000Y-3915000D01*
X10531000Y-4385000D02*
X10561000Y-4415000D01*
X10561000Y-4385000D02*
X10531000Y-4415000D01*
X10531000Y-4585000D02*
X10561000Y-4615000D01*
X10561000Y-4585000D02*
X10531000Y-4615000D01*
X10685000Y-3485000D02*
X10715000Y-3515000D01*
X10715000Y-3485000D02*
X10685000Y-3515000D01*
X10785000Y-3885000D02*
X10815000Y-3915000D01*
X10815000Y-3885000D02*
X10785000Y-3915000D01*
X10785000Y-4385000D02*
X10815000Y-4415000D01*
X10815000Y-4385000D02*
X10785000Y-4415000D01*
X10785000Y-4585000D02*
X10815000Y-4615000D01*
X10815000Y-4585000D02*
X10785000Y-4615000D01*
X10785000Y-4785000D02*
X10815000Y-4815000D01*
X10815000Y-4785000D02*
X10785000Y-4815000D01*
X10935000Y-3485000D02*
X10965000Y-3515000D01*
X10965000Y-3485000D02*
X10935000Y-3515000D01*
X10985000Y-4785000D02*
X11015000Y-4815000D01*
X11015000Y-4785000D02*
X10985000Y-4815000D01*
X7083250Y-4140000D02*
G75*
G02*
X7003250Y-4140000I-40000J0D01*
G01*
X7003250Y-4140000D02*
G75*
G02*
X7083250Y-4140000I40000J0D01*
G01*
X7593250Y-4260000D02*
G75*
G02*
X7513250Y-4260000I-40000J0D01*
G01*
X7513250Y-4260000D02*
G75*
G02*
X7593250Y-4260000I40000J0D01*
G01*
X8240000Y-3446750D02*
G75*
G02*
X8160000Y-3446750I-40000J0D01*
G01*
X8160000Y-3446750D02*
G75*
G02*
X8240000Y-3446750I40000J0D01*
G01*
X8240000Y-4043500D02*
G75*
G02*
X8160000Y-4043500I-40000J0D01*
G01*
X8160000Y-4043500D02*
G75*
G02*
X8240000Y-4043500I40000J0D01*
G01*
X8540000Y-4450000D02*
G75*
G02*
X8460000Y-4450000I-40000J0D01*
G01*
X8460000Y-4450000D02*
G75*
G02*
X8540000Y-4450000I40000J0D01*
G01*
X8540000Y-5300000D02*
G75*
G02*
X8460000Y-5300000I-40000J0D01*
G01*
X8460000Y-5300000D02*
G75*
G02*
X8540000Y-5300000I40000J0D01*
G01*
X9090000Y-3446750D02*
G75*
G02*
X9010000Y-3446750I-40000J0D01*
G01*
X9010000Y-3446750D02*
G75*
G02*
X9090000Y-3446750I40000J0D01*
G01*
X9090000Y-4043500D02*
G75*
G02*
X9010000Y-4043500I-40000J0D01*
G01*
X9010000Y-4043500D02*
G75*
G02*
X9090000Y-4043500I40000J0D01*
G01*
X9090000Y-4450000D02*
G75*
G02*
X9010000Y-4450000I-40000J0D01*
G01*
X9010000Y-4450000D02*
G75*
G02*
X9090000Y-4450000I40000J0D01*
G01*
X9090000Y-5300000D02*
G75*
G02*
X9010000Y-5300000I-40000J0D01*
G01*
X9010000Y-5300000D02*
G75*
G02*
X9090000Y-5300000I40000J0D01*
G01*
X9496500Y-3450000D02*
G75*
G02*
X9416500Y-3450000I-40000J0D01*
G01*
X9416500Y-3450000D02*
G75*
G02*
X9496500Y-3450000I40000J0D01*
G01*
X9496500Y-4046750D02*
G75*
G02*
X9416500Y-4046750I-40000J0D01*
G01*
X9416500Y-4046750D02*
G75*
G02*
X9496500Y-4046750I40000J0D01*
G01*
X9640000Y-4450000D02*
G75*
G02*
X9560000Y-4450000I-40000J0D01*
G01*
X9560000Y-4450000D02*
G75*
G02*
X9640000Y-4450000I40000J0D01*
G01*
X9640000Y-5300000D02*
G75*
G02*
X9560000Y-5300000I-40000J0D01*
G01*
X9560000Y-5300000D02*
G75*
G02*
X9640000Y-5300000I40000J0D01*
G01*
X10240000Y-4450000D02*
G75*
G02*
X10160000Y-4450000I-40000J0D01*
G01*
X10160000Y-4450000D02*
G75*
G02*
X10240000Y-4450000I40000J0D01*
G01*
X10240000Y-5300000D02*
G75*
G02*
X10160000Y-5300000I-40000J0D01*
G01*
X10160000Y-5300000D02*
G75*
G02*
X10240000Y-5300000I40000J0D01*
G01*
X10346500Y-3450000D02*
G75*
G02*
X10266500Y-3450000I-40000J0D01*
G01*
X10266500Y-3450000D02*
G75*
G02*
X10346500Y-3450000I40000J0D01*
G01*
X10346500Y-4046750D02*
G75*
G02*
X10266500Y-4046750I-40000J0D01*
G01*
X10266500Y-4046750D02*
G75*
G02*
X10346500Y-4046750I40000J0D01*
G01*
X7150000Y-4850000D02*
X7150000Y-4950000D01*
X7100000Y-4900000D02*
X7200000Y-4900000D01*
X7150000Y-5200000D02*
X7150000Y-5300000D01*
X7100000Y-5250000D02*
X7200000Y-5250000D01*
X7150000Y-5550000D02*
X7150000Y-5650000D01*
X7100000Y-5600000D02*
X7200000Y-5600000D01*
X7500000Y-4850000D02*
X7500000Y-4950000D01*
X7450000Y-4900000D02*
X7550000Y-4900000D01*
X7500000Y-5200000D02*
X7500000Y-5300000D01*
X7450000Y-5250000D02*
X7550000Y-5250000D01*
X7500000Y-5550000D02*
X7500000Y-5650000D01*
X7450000Y-5600000D02*
X7550000Y-5600000D01*
X7850000Y-4850000D02*
X7850000Y-4950000D01*
X7800000Y-4900000D02*
X7900000Y-4900000D01*
X7850000Y-5200000D02*
X7850000Y-5300000D01*
X7800000Y-5250000D02*
X7900000Y-5250000D01*
X7850000Y-5550000D02*
X7850000Y-5650000D01*
X7800000Y-5600000D02*
X7900000Y-5600000D01*
D11*
X6308277Y-6113984D02*
X6308277Y-5913984D01*
X6308277Y-5913984D02*
X6355896Y-5913984D01*
X6355896Y-5913984D02*
X6384467Y-5923508D01*
X6384467Y-5923508D02*
X6403515Y-5942555D01*
X6403515Y-5942555D02*
X6413039Y-5961603D01*
X6413039Y-5961603D02*
X6422562Y-5999698D01*
X6422562Y-5999698D02*
X6422562Y-6028269D01*
X6422562Y-6028269D02*
X6413039Y-6066365D01*
X6413039Y-6066365D02*
X6403515Y-6085412D01*
X6403515Y-6085412D02*
X6384467Y-6104460D01*
X6384467Y-6104460D02*
X6355896Y-6113984D01*
X6355896Y-6113984D02*
X6308277Y-6113984D01*
X6508277Y-6113984D02*
X6508277Y-5980650D01*
X6508277Y-6018746D02*
X6517801Y-5999698D01*
X6517801Y-5999698D02*
X6527324Y-5990174D01*
X6527324Y-5990174D02*
X6546372Y-5980650D01*
X6546372Y-5980650D02*
X6565420Y-5980650D01*
X6632086Y-6113984D02*
X6632086Y-5980650D01*
X6632086Y-5913984D02*
X6622562Y-5923508D01*
X6622562Y-5923508D02*
X6632086Y-5933031D01*
X6632086Y-5933031D02*
X6641610Y-5923508D01*
X6641610Y-5923508D02*
X6632086Y-5913984D01*
X6632086Y-5913984D02*
X6632086Y-5933031D01*
X6755896Y-6113984D02*
X6736848Y-6104460D01*
X6736848Y-6104460D02*
X6727324Y-6085412D01*
X6727324Y-6085412D02*
X6727324Y-5913984D01*
X6860658Y-6113984D02*
X6841610Y-6104460D01*
X6841610Y-6104460D02*
X6832086Y-6085412D01*
X6832086Y-6085412D02*
X6832086Y-5913984D01*
X7089229Y-6113984D02*
X7089229Y-5913984D01*
X7089229Y-5913984D02*
X7155896Y-6056841D01*
X7155896Y-6056841D02*
X7222562Y-5913984D01*
X7222562Y-5913984D02*
X7222562Y-6113984D01*
X7403515Y-6113984D02*
X7403515Y-6009222D01*
X7403515Y-6009222D02*
X7393991Y-5990174D01*
X7393991Y-5990174D02*
X7374943Y-5980650D01*
X7374943Y-5980650D02*
X7336848Y-5980650D01*
X7336848Y-5980650D02*
X7317801Y-5990174D01*
X7403515Y-6104460D02*
X7384467Y-6113984D01*
X7384467Y-6113984D02*
X7336848Y-6113984D01*
X7336848Y-6113984D02*
X7317801Y-6104460D01*
X7317801Y-6104460D02*
X7308277Y-6085412D01*
X7308277Y-6085412D02*
X7308277Y-6066365D01*
X7308277Y-6066365D02*
X7317801Y-6047317D01*
X7317801Y-6047317D02*
X7336848Y-6037793D01*
X7336848Y-6037793D02*
X7384467Y-6037793D01*
X7384467Y-6037793D02*
X7403515Y-6028269D01*
X7498753Y-5980650D02*
X7498753Y-6180650D01*
X7498753Y-5990174D02*
X7517801Y-5980650D01*
X7517801Y-5980650D02*
X7555896Y-5980650D01*
X7555896Y-5980650D02*
X7574943Y-5990174D01*
X7574943Y-5990174D02*
X7584467Y-5999698D01*
X7584467Y-5999698D02*
X7593991Y-6018746D01*
X7593991Y-6018746D02*
X7593991Y-6075888D01*
X7593991Y-6075888D02*
X7584467Y-6094936D01*
X7584467Y-6094936D02*
X7574943Y-6104460D01*
X7574943Y-6104460D02*
X7555896Y-6113984D01*
X7555896Y-6113984D02*
X7517801Y-6113984D01*
X7517801Y-6113984D02*
X7498753Y-6104460D01*
X7679705Y-6094936D02*
X7689229Y-6104460D01*
X7689229Y-6104460D02*
X7679705Y-6113984D01*
X7679705Y-6113984D02*
X7670182Y-6104460D01*
X7670182Y-6104460D02*
X7679705Y-6094936D01*
X7679705Y-6094936D02*
X7679705Y-6113984D01*
X7679705Y-5990174D02*
X7689229Y-5999698D01*
X7689229Y-5999698D02*
X7679705Y-6009222D01*
X7679705Y-6009222D02*
X7670182Y-5999698D01*
X7670182Y-5999698D02*
X7679705Y-5990174D01*
X7679705Y-5990174D02*
X7679705Y-6009222D01*
D12*
X6017500Y-6427500D02*
X6047500Y-6457500D01*
X6047500Y-6427500D02*
X6017500Y-6457500D01*
D11*
X6346372Y-6333984D02*
X6365420Y-6333984D01*
X6365420Y-6333984D02*
X6384467Y-6343508D01*
X6384467Y-6343508D02*
X6393991Y-6353031D01*
X6393991Y-6353031D02*
X6403515Y-6372079D01*
X6403515Y-6372079D02*
X6413039Y-6410174D01*
X6413039Y-6410174D02*
X6413039Y-6457793D01*
X6413039Y-6457793D02*
X6403515Y-6495888D01*
X6403515Y-6495888D02*
X6393991Y-6514936D01*
X6393991Y-6514936D02*
X6384467Y-6524460D01*
X6384467Y-6524460D02*
X6365420Y-6533984D01*
X6365420Y-6533984D02*
X6346372Y-6533984D01*
X6346372Y-6533984D02*
X6327324Y-6524460D01*
X6327324Y-6524460D02*
X6317801Y-6514936D01*
X6317801Y-6514936D02*
X6308277Y-6495888D01*
X6308277Y-6495888D02*
X6298753Y-6457793D01*
X6298753Y-6457793D02*
X6298753Y-6410174D01*
X6298753Y-6410174D02*
X6308277Y-6372079D01*
X6308277Y-6372079D02*
X6317801Y-6353031D01*
X6317801Y-6353031D02*
X6327324Y-6343508D01*
X6327324Y-6343508D02*
X6346372Y-6333984D01*
X6498753Y-6514936D02*
X6508277Y-6524460D01*
X6508277Y-6524460D02*
X6498753Y-6533984D01*
X6498753Y-6533984D02*
X6489229Y-6524460D01*
X6489229Y-6524460D02*
X6498753Y-6514936D01*
X6498753Y-6514936D02*
X6498753Y-6533984D01*
X6574943Y-6333984D02*
X6698753Y-6333984D01*
X6698753Y-6333984D02*
X6632086Y-6410174D01*
X6632086Y-6410174D02*
X6660658Y-6410174D01*
X6660658Y-6410174D02*
X6679705Y-6419698D01*
X6679705Y-6419698D02*
X6689229Y-6429222D01*
X6689229Y-6429222D02*
X6698753Y-6448269D01*
X6698753Y-6448269D02*
X6698753Y-6495888D01*
X6698753Y-6495888D02*
X6689229Y-6514936D01*
X6689229Y-6514936D02*
X6679705Y-6524460D01*
X6679705Y-6524460D02*
X6660658Y-6533984D01*
X6660658Y-6533984D02*
X6603515Y-6533984D01*
X6603515Y-6533984D02*
X6584467Y-6524460D01*
X6584467Y-6524460D02*
X6574943Y-6514936D01*
X6822562Y-6333984D02*
X6841610Y-6333984D01*
X6841610Y-6333984D02*
X6860658Y-6343508D01*
X6860658Y-6343508D02*
X6870182Y-6353031D01*
X6870182Y-6353031D02*
X6879705Y-6372079D01*
X6879705Y-6372079D02*
X6889229Y-6410174D01*
X6889229Y-6410174D02*
X6889229Y-6457793D01*
X6889229Y-6457793D02*
X6879705Y-6495888D01*
X6879705Y-6495888D02*
X6870182Y-6514936D01*
X6870182Y-6514936D02*
X6860658Y-6524460D01*
X6860658Y-6524460D02*
X6841610Y-6533984D01*
X6841610Y-6533984D02*
X6822562Y-6533984D01*
X6822562Y-6533984D02*
X6803515Y-6524460D01*
X6803515Y-6524460D02*
X6793991Y-6514936D01*
X6793991Y-6514936D02*
X6784467Y-6495888D01*
X6784467Y-6495888D02*
X6774943Y-6457793D01*
X6774943Y-6457793D02*
X6774943Y-6410174D01*
X6774943Y-6410174D02*
X6784467Y-6372079D01*
X6784467Y-6372079D02*
X6793991Y-6353031D01*
X6793991Y-6353031D02*
X6803515Y-6343508D01*
X6803515Y-6343508D02*
X6822562Y-6333984D01*
X7013039Y-6333984D02*
X7032086Y-6333984D01*
X7032086Y-6333984D02*
X7051134Y-6343508D01*
X7051134Y-6343508D02*
X7060658Y-6353031D01*
X7060658Y-6353031D02*
X7070182Y-6372079D01*
X7070182Y-6372079D02*
X7079705Y-6410174D01*
X7079705Y-6410174D02*
X7079705Y-6457793D01*
X7079705Y-6457793D02*
X7070182Y-6495888D01*
X7070182Y-6495888D02*
X7060658Y-6514936D01*
X7060658Y-6514936D02*
X7051134Y-6524460D01*
X7051134Y-6524460D02*
X7032086Y-6533984D01*
X7032086Y-6533984D02*
X7013039Y-6533984D01*
X7013039Y-6533984D02*
X6993991Y-6524460D01*
X6993991Y-6524460D02*
X6984467Y-6514936D01*
X6984467Y-6514936D02*
X6974943Y-6495888D01*
X6974943Y-6495888D02*
X6965420Y-6457793D01*
X6965420Y-6457793D02*
X6965420Y-6410174D01*
X6965420Y-6410174D02*
X6974943Y-6372079D01*
X6974943Y-6372079D02*
X6984467Y-6353031D01*
X6984467Y-6353031D02*
X6993991Y-6343508D01*
X6993991Y-6343508D02*
X7013039Y-6333984D01*
X7165420Y-6533984D02*
X7165420Y-6400650D01*
X7165420Y-6419698D02*
X7174943Y-6410174D01*
X7174943Y-6410174D02*
X7193991Y-6400650D01*
X7193991Y-6400650D02*
X7222563Y-6400650D01*
X7222563Y-6400650D02*
X7241610Y-6410174D01*
X7241610Y-6410174D02*
X7251134Y-6429222D01*
X7251134Y-6429222D02*
X7251134Y-6533984D01*
X7251134Y-6429222D02*
X7260658Y-6410174D01*
X7260658Y-6410174D02*
X7279705Y-6400650D01*
X7279705Y-6400650D02*
X7308277Y-6400650D01*
X7308277Y-6400650D02*
X7327324Y-6410174D01*
X7327324Y-6410174D02*
X7336848Y-6429222D01*
X7336848Y-6429222D02*
X7336848Y-6533984D01*
X7432086Y-6533984D02*
X7432086Y-6400650D01*
X7432086Y-6419698D02*
X7441610Y-6410174D01*
X7441610Y-6410174D02*
X7460658Y-6400650D01*
X7460658Y-6400650D02*
X7489229Y-6400650D01*
X7489229Y-6400650D02*
X7508277Y-6410174D01*
X7508277Y-6410174D02*
X7517801Y-6429222D01*
X7517801Y-6429222D02*
X7517801Y-6533984D01*
X7517801Y-6429222D02*
X7527324Y-6410174D01*
X7527324Y-6410174D02*
X7546372Y-6400650D01*
X7546372Y-6400650D02*
X7574943Y-6400650D01*
X7574943Y-6400650D02*
X7593991Y-6410174D01*
X7593991Y-6410174D02*
X7603515Y-6429222D01*
X7603515Y-6429222D02*
X7603515Y-6533984D01*
X7993991Y-6324460D02*
X7822563Y-6581603D01*
X8251134Y-6333984D02*
X8270182Y-6333984D01*
X8270182Y-6333984D02*
X8289229Y-6343508D01*
X8289229Y-6343508D02*
X8298753Y-6353031D01*
X8298753Y-6353031D02*
X8308277Y-6372079D01*
X8308277Y-6372079D02*
X8317801Y-6410174D01*
X8317801Y-6410174D02*
X8317801Y-6457793D01*
X8317801Y-6457793D02*
X8308277Y-6495888D01*
X8308277Y-6495888D02*
X8298753Y-6514936D01*
X8298753Y-6514936D02*
X8289229Y-6524460D01*
X8289229Y-6524460D02*
X8270182Y-6533984D01*
X8270182Y-6533984D02*
X8251134Y-6533984D01*
X8251134Y-6533984D02*
X8232086Y-6524460D01*
X8232086Y-6524460D02*
X8222563Y-6514936D01*
X8222563Y-6514936D02*
X8213039Y-6495888D01*
X8213039Y-6495888D02*
X8203515Y-6457793D01*
X8203515Y-6457793D02*
X8203515Y-6410174D01*
X8203515Y-6410174D02*
X8213039Y-6372079D01*
X8213039Y-6372079D02*
X8222563Y-6353031D01*
X8222563Y-6353031D02*
X8232086Y-6343508D01*
X8232086Y-6343508D02*
X8251134Y-6333984D01*
X8403515Y-6514936D02*
X8413039Y-6524460D01*
X8413039Y-6524460D02*
X8403515Y-6533984D01*
X8403515Y-6533984D02*
X8393991Y-6524460D01*
X8393991Y-6524460D02*
X8403515Y-6514936D01*
X8403515Y-6514936D02*
X8403515Y-6533984D01*
X8536848Y-6333984D02*
X8555896Y-6333984D01*
X8555896Y-6333984D02*
X8574944Y-6343508D01*
X8574944Y-6343508D02*
X8584468Y-6353031D01*
X8584468Y-6353031D02*
X8593991Y-6372079D01*
X8593991Y-6372079D02*
X8603515Y-6410174D01*
X8603515Y-6410174D02*
X8603515Y-6457793D01*
X8603515Y-6457793D02*
X8593991Y-6495888D01*
X8593991Y-6495888D02*
X8584468Y-6514936D01*
X8584468Y-6514936D02*
X8574944Y-6524460D01*
X8574944Y-6524460D02*
X8555896Y-6533984D01*
X8555896Y-6533984D02*
X8536848Y-6533984D01*
X8536848Y-6533984D02*
X8517801Y-6524460D01*
X8517801Y-6524460D02*
X8508277Y-6514936D01*
X8508277Y-6514936D02*
X8498753Y-6495888D01*
X8498753Y-6495888D02*
X8489229Y-6457793D01*
X8489229Y-6457793D02*
X8489229Y-6410174D01*
X8489229Y-6410174D02*
X8498753Y-6372079D01*
X8498753Y-6372079D02*
X8508277Y-6353031D01*
X8508277Y-6353031D02*
X8517801Y-6343508D01*
X8517801Y-6343508D02*
X8536848Y-6333984D01*
X8793991Y-6533984D02*
X8679706Y-6533984D01*
X8736848Y-6533984D02*
X8736848Y-6333984D01*
X8736848Y-6333984D02*
X8717801Y-6362555D01*
X8717801Y-6362555D02*
X8698753Y-6381603D01*
X8698753Y-6381603D02*
X8679706Y-6391127D01*
X8984468Y-6533984D02*
X8870182Y-6533984D01*
X8927325Y-6533984D02*
X8927325Y-6333984D01*
X8927325Y-6333984D02*
X8908277Y-6362555D01*
X8908277Y-6362555D02*
X8889229Y-6381603D01*
X8889229Y-6381603D02*
X8870182Y-6391127D01*
X9098753Y-6419698D02*
X9079706Y-6410174D01*
X9079706Y-6410174D02*
X9070182Y-6400650D01*
X9070182Y-6400650D02*
X9060658Y-6381603D01*
X9060658Y-6381603D02*
X9060658Y-6372079D01*
X9060658Y-6372079D02*
X9070182Y-6353031D01*
X9070182Y-6353031D02*
X9079706Y-6343508D01*
X9079706Y-6343508D02*
X9098753Y-6333984D01*
X9098753Y-6333984D02*
X9136849Y-6333984D01*
X9136849Y-6333984D02*
X9155896Y-6343508D01*
X9155896Y-6343508D02*
X9165420Y-6353031D01*
X9165420Y-6353031D02*
X9174944Y-6372079D01*
X9174944Y-6372079D02*
X9174944Y-6381603D01*
X9174944Y-6381603D02*
X9165420Y-6400650D01*
X9165420Y-6400650D02*
X9155896Y-6410174D01*
X9155896Y-6410174D02*
X9136849Y-6419698D01*
X9136849Y-6419698D02*
X9098753Y-6419698D01*
X9098753Y-6419698D02*
X9079706Y-6429222D01*
X9079706Y-6429222D02*
X9070182Y-6438746D01*
X9070182Y-6438746D02*
X9060658Y-6457793D01*
X9060658Y-6457793D02*
X9060658Y-6495888D01*
X9060658Y-6495888D02*
X9070182Y-6514936D01*
X9070182Y-6514936D02*
X9079706Y-6524460D01*
X9079706Y-6524460D02*
X9098753Y-6533984D01*
X9098753Y-6533984D02*
X9136849Y-6533984D01*
X9136849Y-6533984D02*
X9155896Y-6524460D01*
X9155896Y-6524460D02*
X9165420Y-6514936D01*
X9165420Y-6514936D02*
X9174944Y-6495888D01*
X9174944Y-6495888D02*
X9174944Y-6457793D01*
X9174944Y-6457793D02*
X9165420Y-6438746D01*
X9165420Y-6438746D02*
X9155896Y-6429222D01*
X9155896Y-6429222D02*
X9136849Y-6419698D01*
X9251134Y-6333984D02*
X9251134Y-6372079D01*
X9327325Y-6333984D02*
X9327325Y-6372079D01*
X9622563Y-6610174D02*
X9613039Y-6600650D01*
X9613039Y-6600650D02*
X9593991Y-6572079D01*
X9593991Y-6572079D02*
X9584468Y-6553031D01*
X9584468Y-6553031D02*
X9574944Y-6524460D01*
X9574944Y-6524460D02*
X9565420Y-6476841D01*
X9565420Y-6476841D02*
X9565420Y-6438746D01*
X9565420Y-6438746D02*
X9574944Y-6391127D01*
X9574944Y-6391127D02*
X9584468Y-6362555D01*
X9584468Y-6362555D02*
X9593991Y-6343508D01*
X9593991Y-6343508D02*
X9613039Y-6314936D01*
X9613039Y-6314936D02*
X9622563Y-6305412D01*
X9679706Y-6333984D02*
X9813039Y-6333984D01*
X9813039Y-6333984D02*
X9727325Y-6533984D01*
X9984468Y-6333984D02*
X9889230Y-6333984D01*
X9889230Y-6333984D02*
X9879706Y-6429222D01*
X9879706Y-6429222D02*
X9889230Y-6419698D01*
X9889230Y-6419698D02*
X9908277Y-6410174D01*
X9908277Y-6410174D02*
X9955896Y-6410174D01*
X9955896Y-6410174D02*
X9974944Y-6419698D01*
X9974944Y-6419698D02*
X9984468Y-6429222D01*
X9984468Y-6429222D02*
X9993991Y-6448269D01*
X9993991Y-6448269D02*
X9993991Y-6495888D01*
X9993991Y-6495888D02*
X9984468Y-6514936D01*
X9984468Y-6514936D02*
X9974944Y-6524460D01*
X9974944Y-6524460D02*
X9955896Y-6533984D01*
X9955896Y-6533984D02*
X9908277Y-6533984D01*
X9908277Y-6533984D02*
X9889230Y-6524460D01*
X9889230Y-6524460D02*
X9879706Y-6514936D01*
X10232087Y-6533984D02*
X10232087Y-6333984D01*
X10317801Y-6533984D02*
X10317801Y-6429222D01*
X10317801Y-6429222D02*
X10308277Y-6410174D01*
X10308277Y-6410174D02*
X10289230Y-6400650D01*
X10289230Y-6400650D02*
X10260658Y-6400650D01*
X10260658Y-6400650D02*
X10241611Y-6410174D01*
X10241611Y-6410174D02*
X10232087Y-6419698D01*
X10441611Y-6533984D02*
X10422563Y-6524460D01*
X10422563Y-6524460D02*
X10413039Y-6514936D01*
X10413039Y-6514936D02*
X10403515Y-6495888D01*
X10403515Y-6495888D02*
X10403515Y-6438746D01*
X10403515Y-6438746D02*
X10413039Y-6419698D01*
X10413039Y-6419698D02*
X10422563Y-6410174D01*
X10422563Y-6410174D02*
X10441611Y-6400650D01*
X10441611Y-6400650D02*
X10470182Y-6400650D01*
X10470182Y-6400650D02*
X10489230Y-6410174D01*
X10489230Y-6410174D02*
X10498753Y-6419698D01*
X10498753Y-6419698D02*
X10508277Y-6438746D01*
X10508277Y-6438746D02*
X10508277Y-6495888D01*
X10508277Y-6495888D02*
X10498753Y-6514936D01*
X10498753Y-6514936D02*
X10489230Y-6524460D01*
X10489230Y-6524460D02*
X10470182Y-6533984D01*
X10470182Y-6533984D02*
X10441611Y-6533984D01*
X10622563Y-6533984D02*
X10603515Y-6524460D01*
X10603515Y-6524460D02*
X10593992Y-6505412D01*
X10593992Y-6505412D02*
X10593992Y-6333984D01*
X10774944Y-6524460D02*
X10755896Y-6533984D01*
X10755896Y-6533984D02*
X10717801Y-6533984D01*
X10717801Y-6533984D02*
X10698753Y-6524460D01*
X10698753Y-6524460D02*
X10689230Y-6505412D01*
X10689230Y-6505412D02*
X10689230Y-6429222D01*
X10689230Y-6429222D02*
X10698753Y-6410174D01*
X10698753Y-6410174D02*
X10717801Y-6400650D01*
X10717801Y-6400650D02*
X10755896Y-6400650D01*
X10755896Y-6400650D02*
X10774944Y-6410174D01*
X10774944Y-6410174D02*
X10784468Y-6429222D01*
X10784468Y-6429222D02*
X10784468Y-6448269D01*
X10784468Y-6448269D02*
X10689230Y-6467317D01*
X10860658Y-6524460D02*
X10879706Y-6533984D01*
X10879706Y-6533984D02*
X10917801Y-6533984D01*
X10917801Y-6533984D02*
X10936849Y-6524460D01*
X10936849Y-6524460D02*
X10946373Y-6505412D01*
X10946373Y-6505412D02*
X10946373Y-6495888D01*
X10946373Y-6495888D02*
X10936849Y-6476841D01*
X10936849Y-6476841D02*
X10917801Y-6467317D01*
X10917801Y-6467317D02*
X10889230Y-6467317D01*
X10889230Y-6467317D02*
X10870182Y-6457793D01*
X10870182Y-6457793D02*
X10860658Y-6438746D01*
X10860658Y-6438746D02*
X10860658Y-6429222D01*
X10860658Y-6429222D02*
X10870182Y-6410174D01*
X10870182Y-6410174D02*
X10889230Y-6400650D01*
X10889230Y-6400650D02*
X10917801Y-6400650D01*
X10917801Y-6400650D02*
X10936849Y-6410174D01*
X11013039Y-6610174D02*
X11022563Y-6600650D01*
X11022563Y-6600650D02*
X11041611Y-6572079D01*
X11041611Y-6572079D02*
X11051134Y-6553031D01*
X11051134Y-6553031D02*
X11060658Y-6524460D01*
X11060658Y-6524460D02*
X11070182Y-6476841D01*
X11070182Y-6476841D02*
X11070182Y-6438746D01*
X11070182Y-6438746D02*
X11060658Y-6391127D01*
X11060658Y-6391127D02*
X11051134Y-6362555D01*
X11051134Y-6362555D02*
X11041611Y-6343508D01*
X11041611Y-6343508D02*
X11022563Y-6314936D01*
X11022563Y-6314936D02*
X11013039Y-6305412D01*
D12*
X6047500Y-6706500D02*
G75*
G02*
X5967500Y-6706500I-40000J0D01*
G01*
X5967500Y-6706500D02*
G75*
G02*
X6047500Y-6706500I40000J0D01*
G01*
D11*
X6346372Y-6597984D02*
X6365420Y-6597984D01*
X6365420Y-6597984D02*
X6384467Y-6607508D01*
X6384467Y-6607508D02*
X6393991Y-6617031D01*
X6393991Y-6617031D02*
X6403515Y-6636079D01*
X6403515Y-6636079D02*
X6413039Y-6674174D01*
X6413039Y-6674174D02*
X6413039Y-6721793D01*
X6413039Y-6721793D02*
X6403515Y-6759888D01*
X6403515Y-6759888D02*
X6393991Y-6778936D01*
X6393991Y-6778936D02*
X6384467Y-6788460D01*
X6384467Y-6788460D02*
X6365420Y-6797984D01*
X6365420Y-6797984D02*
X6346372Y-6797984D01*
X6346372Y-6797984D02*
X6327324Y-6788460D01*
X6327324Y-6788460D02*
X6317801Y-6778936D01*
X6317801Y-6778936D02*
X6308277Y-6759888D01*
X6308277Y-6759888D02*
X6298753Y-6721793D01*
X6298753Y-6721793D02*
X6298753Y-6674174D01*
X6298753Y-6674174D02*
X6308277Y-6636079D01*
X6308277Y-6636079D02*
X6317801Y-6617031D01*
X6317801Y-6617031D02*
X6327324Y-6607508D01*
X6327324Y-6607508D02*
X6346372Y-6597984D01*
X6498753Y-6778936D02*
X6508277Y-6788460D01*
X6508277Y-6788460D02*
X6498753Y-6797984D01*
X6498753Y-6797984D02*
X6489229Y-6788460D01*
X6489229Y-6788460D02*
X6498753Y-6778936D01*
X6498753Y-6778936D02*
X6498753Y-6797984D01*
X6622562Y-6683698D02*
X6603515Y-6674174D01*
X6603515Y-6674174D02*
X6593991Y-6664650D01*
X6593991Y-6664650D02*
X6584467Y-6645603D01*
X6584467Y-6645603D02*
X6584467Y-6636079D01*
X6584467Y-6636079D02*
X6593991Y-6617031D01*
X6593991Y-6617031D02*
X6603515Y-6607508D01*
X6603515Y-6607508D02*
X6622562Y-6597984D01*
X6622562Y-6597984D02*
X6660658Y-6597984D01*
X6660658Y-6597984D02*
X6679705Y-6607508D01*
X6679705Y-6607508D02*
X6689229Y-6617031D01*
X6689229Y-6617031D02*
X6698753Y-6636079D01*
X6698753Y-6636079D02*
X6698753Y-6645603D01*
X6698753Y-6645603D02*
X6689229Y-6664650D01*
X6689229Y-6664650D02*
X6679705Y-6674174D01*
X6679705Y-6674174D02*
X6660658Y-6683698D01*
X6660658Y-6683698D02*
X6622562Y-6683698D01*
X6622562Y-6683698D02*
X6603515Y-6693222D01*
X6603515Y-6693222D02*
X6593991Y-6702746D01*
X6593991Y-6702746D02*
X6584467Y-6721793D01*
X6584467Y-6721793D02*
X6584467Y-6759888D01*
X6584467Y-6759888D02*
X6593991Y-6778936D01*
X6593991Y-6778936D02*
X6603515Y-6788460D01*
X6603515Y-6788460D02*
X6622562Y-6797984D01*
X6622562Y-6797984D02*
X6660658Y-6797984D01*
X6660658Y-6797984D02*
X6679705Y-6788460D01*
X6679705Y-6788460D02*
X6689229Y-6778936D01*
X6689229Y-6778936D02*
X6698753Y-6759888D01*
X6698753Y-6759888D02*
X6698753Y-6721793D01*
X6698753Y-6721793D02*
X6689229Y-6702746D01*
X6689229Y-6702746D02*
X6679705Y-6693222D01*
X6679705Y-6693222D02*
X6660658Y-6683698D01*
X6822562Y-6597984D02*
X6841610Y-6597984D01*
X6841610Y-6597984D02*
X6860658Y-6607508D01*
X6860658Y-6607508D02*
X6870182Y-6617031D01*
X6870182Y-6617031D02*
X6879705Y-6636079D01*
X6879705Y-6636079D02*
X6889229Y-6674174D01*
X6889229Y-6674174D02*
X6889229Y-6721793D01*
X6889229Y-6721793D02*
X6879705Y-6759888D01*
X6879705Y-6759888D02*
X6870182Y-6778936D01*
X6870182Y-6778936D02*
X6860658Y-6788460D01*
X6860658Y-6788460D02*
X6841610Y-6797984D01*
X6841610Y-6797984D02*
X6822562Y-6797984D01*
X6822562Y-6797984D02*
X6803515Y-6788460D01*
X6803515Y-6788460D02*
X6793991Y-6778936D01*
X6793991Y-6778936D02*
X6784467Y-6759888D01*
X6784467Y-6759888D02*
X6774943Y-6721793D01*
X6774943Y-6721793D02*
X6774943Y-6674174D01*
X6774943Y-6674174D02*
X6784467Y-6636079D01*
X6784467Y-6636079D02*
X6793991Y-6617031D01*
X6793991Y-6617031D02*
X6803515Y-6607508D01*
X6803515Y-6607508D02*
X6822562Y-6597984D01*
X7013039Y-6597984D02*
X7032086Y-6597984D01*
X7032086Y-6597984D02*
X7051134Y-6607508D01*
X7051134Y-6607508D02*
X7060658Y-6617031D01*
X7060658Y-6617031D02*
X7070182Y-6636079D01*
X7070182Y-6636079D02*
X7079705Y-6674174D01*
X7079705Y-6674174D02*
X7079705Y-6721793D01*
X7079705Y-6721793D02*
X7070182Y-6759888D01*
X7070182Y-6759888D02*
X7060658Y-6778936D01*
X7060658Y-6778936D02*
X7051134Y-6788460D01*
X7051134Y-6788460D02*
X7032086Y-6797984D01*
X7032086Y-6797984D02*
X7013039Y-6797984D01*
X7013039Y-6797984D02*
X6993991Y-6788460D01*
X6993991Y-6788460D02*
X6984467Y-6778936D01*
X6984467Y-6778936D02*
X6974943Y-6759888D01*
X6974943Y-6759888D02*
X6965420Y-6721793D01*
X6965420Y-6721793D02*
X6965420Y-6674174D01*
X6965420Y-6674174D02*
X6974943Y-6636079D01*
X6974943Y-6636079D02*
X6984467Y-6617031D01*
X6984467Y-6617031D02*
X6993991Y-6607508D01*
X6993991Y-6607508D02*
X7013039Y-6597984D01*
X7165420Y-6797984D02*
X7165420Y-6664650D01*
X7165420Y-6683698D02*
X7174943Y-6674174D01*
X7174943Y-6674174D02*
X7193991Y-6664650D01*
X7193991Y-6664650D02*
X7222563Y-6664650D01*
X7222563Y-6664650D02*
X7241610Y-6674174D01*
X7241610Y-6674174D02*
X7251134Y-6693222D01*
X7251134Y-6693222D02*
X7251134Y-6797984D01*
X7251134Y-6693222D02*
X7260658Y-6674174D01*
X7260658Y-6674174D02*
X7279705Y-6664650D01*
X7279705Y-6664650D02*
X7308277Y-6664650D01*
X7308277Y-6664650D02*
X7327324Y-6674174D01*
X7327324Y-6674174D02*
X7336848Y-6693222D01*
X7336848Y-6693222D02*
X7336848Y-6797984D01*
X7432086Y-6797984D02*
X7432086Y-6664650D01*
X7432086Y-6683698D02*
X7441610Y-6674174D01*
X7441610Y-6674174D02*
X7460658Y-6664650D01*
X7460658Y-6664650D02*
X7489229Y-6664650D01*
X7489229Y-6664650D02*
X7508277Y-6674174D01*
X7508277Y-6674174D02*
X7517801Y-6693222D01*
X7517801Y-6693222D02*
X7517801Y-6797984D01*
X7517801Y-6693222D02*
X7527324Y-6674174D01*
X7527324Y-6674174D02*
X7546372Y-6664650D01*
X7546372Y-6664650D02*
X7574943Y-6664650D01*
X7574943Y-6664650D02*
X7593991Y-6674174D01*
X7593991Y-6674174D02*
X7603515Y-6693222D01*
X7603515Y-6693222D02*
X7603515Y-6797984D01*
X7993991Y-6588460D02*
X7822563Y-6845603D01*
X8251134Y-6597984D02*
X8270182Y-6597984D01*
X8270182Y-6597984D02*
X8289229Y-6607508D01*
X8289229Y-6607508D02*
X8298753Y-6617031D01*
X8298753Y-6617031D02*
X8308277Y-6636079D01*
X8308277Y-6636079D02*
X8317801Y-6674174D01*
X8317801Y-6674174D02*
X8317801Y-6721793D01*
X8317801Y-6721793D02*
X8308277Y-6759888D01*
X8308277Y-6759888D02*
X8298753Y-6778936D01*
X8298753Y-6778936D02*
X8289229Y-6788460D01*
X8289229Y-6788460D02*
X8270182Y-6797984D01*
X8270182Y-6797984D02*
X8251134Y-6797984D01*
X8251134Y-6797984D02*
X8232086Y-6788460D01*
X8232086Y-6788460D02*
X8222563Y-6778936D01*
X8222563Y-6778936D02*
X8213039Y-6759888D01*
X8213039Y-6759888D02*
X8203515Y-6721793D01*
X8203515Y-6721793D02*
X8203515Y-6674174D01*
X8203515Y-6674174D02*
X8213039Y-6636079D01*
X8213039Y-6636079D02*
X8222563Y-6617031D01*
X8222563Y-6617031D02*
X8232086Y-6607508D01*
X8232086Y-6607508D02*
X8251134Y-6597984D01*
X8403515Y-6778936D02*
X8413039Y-6788460D01*
X8413039Y-6788460D02*
X8403515Y-6797984D01*
X8403515Y-6797984D02*
X8393991Y-6788460D01*
X8393991Y-6788460D02*
X8403515Y-6778936D01*
X8403515Y-6778936D02*
X8403515Y-6797984D01*
X8536848Y-6597984D02*
X8555896Y-6597984D01*
X8555896Y-6597984D02*
X8574944Y-6607508D01*
X8574944Y-6607508D02*
X8584468Y-6617031D01*
X8584468Y-6617031D02*
X8593991Y-6636079D01*
X8593991Y-6636079D02*
X8603515Y-6674174D01*
X8603515Y-6674174D02*
X8603515Y-6721793D01*
X8603515Y-6721793D02*
X8593991Y-6759888D01*
X8593991Y-6759888D02*
X8584468Y-6778936D01*
X8584468Y-6778936D02*
X8574944Y-6788460D01*
X8574944Y-6788460D02*
X8555896Y-6797984D01*
X8555896Y-6797984D02*
X8536848Y-6797984D01*
X8536848Y-6797984D02*
X8517801Y-6788460D01*
X8517801Y-6788460D02*
X8508277Y-6778936D01*
X8508277Y-6778936D02*
X8498753Y-6759888D01*
X8498753Y-6759888D02*
X8489229Y-6721793D01*
X8489229Y-6721793D02*
X8489229Y-6674174D01*
X8489229Y-6674174D02*
X8498753Y-6636079D01*
X8498753Y-6636079D02*
X8508277Y-6617031D01*
X8508277Y-6617031D02*
X8517801Y-6607508D01*
X8517801Y-6607508D02*
X8536848Y-6597984D01*
X8670182Y-6597984D02*
X8793991Y-6597984D01*
X8793991Y-6597984D02*
X8727325Y-6674174D01*
X8727325Y-6674174D02*
X8755896Y-6674174D01*
X8755896Y-6674174D02*
X8774944Y-6683698D01*
X8774944Y-6683698D02*
X8784468Y-6693222D01*
X8784468Y-6693222D02*
X8793991Y-6712269D01*
X8793991Y-6712269D02*
X8793991Y-6759888D01*
X8793991Y-6759888D02*
X8784468Y-6778936D01*
X8784468Y-6778936D02*
X8774944Y-6788460D01*
X8774944Y-6788460D02*
X8755896Y-6797984D01*
X8755896Y-6797984D02*
X8698753Y-6797984D01*
X8698753Y-6797984D02*
X8679706Y-6788460D01*
X8679706Y-6788460D02*
X8670182Y-6778936D01*
X8984468Y-6797984D02*
X8870182Y-6797984D01*
X8927325Y-6797984D02*
X8927325Y-6597984D01*
X8927325Y-6597984D02*
X8908277Y-6626555D01*
X8908277Y-6626555D02*
X8889229Y-6645603D01*
X8889229Y-6645603D02*
X8870182Y-6655127D01*
X9165420Y-6597984D02*
X9070182Y-6597984D01*
X9070182Y-6597984D02*
X9060658Y-6693222D01*
X9060658Y-6693222D02*
X9070182Y-6683698D01*
X9070182Y-6683698D02*
X9089229Y-6674174D01*
X9089229Y-6674174D02*
X9136849Y-6674174D01*
X9136849Y-6674174D02*
X9155896Y-6683698D01*
X9155896Y-6683698D02*
X9165420Y-6693222D01*
X9165420Y-6693222D02*
X9174944Y-6712269D01*
X9174944Y-6712269D02*
X9174944Y-6759888D01*
X9174944Y-6759888D02*
X9165420Y-6778936D01*
X9165420Y-6778936D02*
X9155896Y-6788460D01*
X9155896Y-6788460D02*
X9136849Y-6797984D01*
X9136849Y-6797984D02*
X9089229Y-6797984D01*
X9089229Y-6797984D02*
X9070182Y-6788460D01*
X9070182Y-6788460D02*
X9060658Y-6778936D01*
X9251134Y-6597984D02*
X9251134Y-6636079D01*
X9327325Y-6597984D02*
X9327325Y-6636079D01*
X9622563Y-6874174D02*
X9613039Y-6864650D01*
X9613039Y-6864650D02*
X9593991Y-6836079D01*
X9593991Y-6836079D02*
X9584468Y-6817031D01*
X9584468Y-6817031D02*
X9574944Y-6788460D01*
X9574944Y-6788460D02*
X9565420Y-6740841D01*
X9565420Y-6740841D02*
X9565420Y-6702746D01*
X9565420Y-6702746D02*
X9574944Y-6655127D01*
X9574944Y-6655127D02*
X9584468Y-6626555D01*
X9584468Y-6626555D02*
X9593991Y-6607508D01*
X9593991Y-6607508D02*
X9613039Y-6578936D01*
X9613039Y-6578936D02*
X9622563Y-6569412D01*
X9803515Y-6797984D02*
X9689230Y-6797984D01*
X9746372Y-6797984D02*
X9746372Y-6597984D01*
X9746372Y-6597984D02*
X9727325Y-6626555D01*
X9727325Y-6626555D02*
X9708277Y-6645603D01*
X9708277Y-6645603D02*
X9689230Y-6655127D01*
X9917801Y-6683698D02*
X9898753Y-6674174D01*
X9898753Y-6674174D02*
X9889230Y-6664650D01*
X9889230Y-6664650D02*
X9879706Y-6645603D01*
X9879706Y-6645603D02*
X9879706Y-6636079D01*
X9879706Y-6636079D02*
X9889230Y-6617031D01*
X9889230Y-6617031D02*
X9898753Y-6607508D01*
X9898753Y-6607508D02*
X9917801Y-6597984D01*
X9917801Y-6597984D02*
X9955896Y-6597984D01*
X9955896Y-6597984D02*
X9974944Y-6607508D01*
X9974944Y-6607508D02*
X9984468Y-6617031D01*
X9984468Y-6617031D02*
X9993991Y-6636079D01*
X9993991Y-6636079D02*
X9993991Y-6645603D01*
X9993991Y-6645603D02*
X9984468Y-6664650D01*
X9984468Y-6664650D02*
X9974944Y-6674174D01*
X9974944Y-6674174D02*
X9955896Y-6683698D01*
X9955896Y-6683698D02*
X9917801Y-6683698D01*
X9917801Y-6683698D02*
X9898753Y-6693222D01*
X9898753Y-6693222D02*
X9889230Y-6702746D01*
X9889230Y-6702746D02*
X9879706Y-6721793D01*
X9879706Y-6721793D02*
X9879706Y-6759888D01*
X9879706Y-6759888D02*
X9889230Y-6778936D01*
X9889230Y-6778936D02*
X9898753Y-6788460D01*
X9898753Y-6788460D02*
X9917801Y-6797984D01*
X9917801Y-6797984D02*
X9955896Y-6797984D01*
X9955896Y-6797984D02*
X9974944Y-6788460D01*
X9974944Y-6788460D02*
X9984468Y-6778936D01*
X9984468Y-6778936D02*
X9993991Y-6759888D01*
X9993991Y-6759888D02*
X9993991Y-6721793D01*
X9993991Y-6721793D02*
X9984468Y-6702746D01*
X9984468Y-6702746D02*
X9974944Y-6693222D01*
X9974944Y-6693222D02*
X9955896Y-6683698D01*
X10232087Y-6797984D02*
X10232087Y-6597984D01*
X10317801Y-6797984D02*
X10317801Y-6693222D01*
X10317801Y-6693222D02*
X10308277Y-6674174D01*
X10308277Y-6674174D02*
X10289230Y-6664650D01*
X10289230Y-6664650D02*
X10260658Y-6664650D01*
X10260658Y-6664650D02*
X10241611Y-6674174D01*
X10241611Y-6674174D02*
X10232087Y-6683698D01*
X10441611Y-6797984D02*
X10422563Y-6788460D01*
X10422563Y-6788460D02*
X10413039Y-6778936D01*
X10413039Y-6778936D02*
X10403515Y-6759888D01*
X10403515Y-6759888D02*
X10403515Y-6702746D01*
X10403515Y-6702746D02*
X10413039Y-6683698D01*
X10413039Y-6683698D02*
X10422563Y-6674174D01*
X10422563Y-6674174D02*
X10441611Y-6664650D01*
X10441611Y-6664650D02*
X10470182Y-6664650D01*
X10470182Y-6664650D02*
X10489230Y-6674174D01*
X10489230Y-6674174D02*
X10498753Y-6683698D01*
X10498753Y-6683698D02*
X10508277Y-6702746D01*
X10508277Y-6702746D02*
X10508277Y-6759888D01*
X10508277Y-6759888D02*
X10498753Y-6778936D01*
X10498753Y-6778936D02*
X10489230Y-6788460D01*
X10489230Y-6788460D02*
X10470182Y-6797984D01*
X10470182Y-6797984D02*
X10441611Y-6797984D01*
X10622563Y-6797984D02*
X10603515Y-6788460D01*
X10603515Y-6788460D02*
X10593992Y-6769412D01*
X10593992Y-6769412D02*
X10593992Y-6597984D01*
X10774944Y-6788460D02*
X10755896Y-6797984D01*
X10755896Y-6797984D02*
X10717801Y-6797984D01*
X10717801Y-6797984D02*
X10698753Y-6788460D01*
X10698753Y-6788460D02*
X10689230Y-6769412D01*
X10689230Y-6769412D02*
X10689230Y-6693222D01*
X10689230Y-6693222D02*
X10698753Y-6674174D01*
X10698753Y-6674174D02*
X10717801Y-6664650D01*
X10717801Y-6664650D02*
X10755896Y-6664650D01*
X10755896Y-6664650D02*
X10774944Y-6674174D01*
X10774944Y-6674174D02*
X10784468Y-6693222D01*
X10784468Y-6693222D02*
X10784468Y-6712269D01*
X10784468Y-6712269D02*
X10689230Y-6731317D01*
X10860658Y-6788460D02*
X10879706Y-6797984D01*
X10879706Y-6797984D02*
X10917801Y-6797984D01*
X10917801Y-6797984D02*
X10936849Y-6788460D01*
X10936849Y-6788460D02*
X10946373Y-6769412D01*
X10946373Y-6769412D02*
X10946373Y-6759888D01*
X10946373Y-6759888D02*
X10936849Y-6740841D01*
X10936849Y-6740841D02*
X10917801Y-6731317D01*
X10917801Y-6731317D02*
X10889230Y-6731317D01*
X10889230Y-6731317D02*
X10870182Y-6721793D01*
X10870182Y-6721793D02*
X10860658Y-6702746D01*
X10860658Y-6702746D02*
X10860658Y-6693222D01*
X10860658Y-6693222D02*
X10870182Y-6674174D01*
X10870182Y-6674174D02*
X10889230Y-6664650D01*
X10889230Y-6664650D02*
X10917801Y-6664650D01*
X10917801Y-6664650D02*
X10936849Y-6674174D01*
X11013039Y-6874174D02*
X11022563Y-6864650D01*
X11022563Y-6864650D02*
X11041611Y-6836079D01*
X11041611Y-6836079D02*
X11051134Y-6817031D01*
X11051134Y-6817031D02*
X11060658Y-6788460D01*
X11060658Y-6788460D02*
X11070182Y-6740841D01*
X11070182Y-6740841D02*
X11070182Y-6702746D01*
X11070182Y-6702746D02*
X11060658Y-6655127D01*
X11060658Y-6655127D02*
X11051134Y-6626555D01*
X11051134Y-6626555D02*
X11041611Y-6607508D01*
X11041611Y-6607508D02*
X11022563Y-6578936D01*
X11022563Y-6578936D02*
X11013039Y-6569412D01*
D12*
X5997500Y-6920500D02*
X5997500Y-7020500D01*
X5947500Y-6970500D02*
X6047500Y-6970500D01*
D11*
X6413039Y-7061984D02*
X6298753Y-7061984D01*
X6355896Y-7061984D02*
X6355896Y-6861984D01*
X6355896Y-6861984D02*
X6336848Y-6890555D01*
X6336848Y-6890555D02*
X6317801Y-6909603D01*
X6317801Y-6909603D02*
X6298753Y-6919127D01*
X6498753Y-7042936D02*
X6508277Y-7052460D01*
X6508277Y-7052460D02*
X6498753Y-7061984D01*
X6498753Y-7061984D02*
X6489229Y-7052460D01*
X6489229Y-7052460D02*
X6498753Y-7042936D01*
X6498753Y-7042936D02*
X6498753Y-7061984D01*
X6632086Y-6861984D02*
X6651134Y-6861984D01*
X6651134Y-6861984D02*
X6670182Y-6871508D01*
X6670182Y-6871508D02*
X6679705Y-6881031D01*
X6679705Y-6881031D02*
X6689229Y-6900079D01*
X6689229Y-6900079D02*
X6698753Y-6938174D01*
X6698753Y-6938174D02*
X6698753Y-6985793D01*
X6698753Y-6985793D02*
X6689229Y-7023888D01*
X6689229Y-7023888D02*
X6679705Y-7042936D01*
X6679705Y-7042936D02*
X6670182Y-7052460D01*
X6670182Y-7052460D02*
X6651134Y-7061984D01*
X6651134Y-7061984D02*
X6632086Y-7061984D01*
X6632086Y-7061984D02*
X6613039Y-7052460D01*
X6613039Y-7052460D02*
X6603515Y-7042936D01*
X6603515Y-7042936D02*
X6593991Y-7023888D01*
X6593991Y-7023888D02*
X6584467Y-6985793D01*
X6584467Y-6985793D02*
X6584467Y-6938174D01*
X6584467Y-6938174D02*
X6593991Y-6900079D01*
X6593991Y-6900079D02*
X6603515Y-6881031D01*
X6603515Y-6881031D02*
X6613039Y-6871508D01*
X6613039Y-6871508D02*
X6632086Y-6861984D01*
X6822562Y-6861984D02*
X6841610Y-6861984D01*
X6841610Y-6861984D02*
X6860658Y-6871508D01*
X6860658Y-6871508D02*
X6870182Y-6881031D01*
X6870182Y-6881031D02*
X6879705Y-6900079D01*
X6879705Y-6900079D02*
X6889229Y-6938174D01*
X6889229Y-6938174D02*
X6889229Y-6985793D01*
X6889229Y-6985793D02*
X6879705Y-7023888D01*
X6879705Y-7023888D02*
X6870182Y-7042936D01*
X6870182Y-7042936D02*
X6860658Y-7052460D01*
X6860658Y-7052460D02*
X6841610Y-7061984D01*
X6841610Y-7061984D02*
X6822562Y-7061984D01*
X6822562Y-7061984D02*
X6803515Y-7052460D01*
X6803515Y-7052460D02*
X6793991Y-7042936D01*
X6793991Y-7042936D02*
X6784467Y-7023888D01*
X6784467Y-7023888D02*
X6774943Y-6985793D01*
X6774943Y-6985793D02*
X6774943Y-6938174D01*
X6774943Y-6938174D02*
X6784467Y-6900079D01*
X6784467Y-6900079D02*
X6793991Y-6881031D01*
X6793991Y-6881031D02*
X6803515Y-6871508D01*
X6803515Y-6871508D02*
X6822562Y-6861984D01*
X7013039Y-6861984D02*
X7032086Y-6861984D01*
X7032086Y-6861984D02*
X7051134Y-6871508D01*
X7051134Y-6871508D02*
X7060658Y-6881031D01*
X7060658Y-6881031D02*
X7070182Y-6900079D01*
X7070182Y-6900079D02*
X7079705Y-6938174D01*
X7079705Y-6938174D02*
X7079705Y-6985793D01*
X7079705Y-6985793D02*
X7070182Y-7023888D01*
X7070182Y-7023888D02*
X7060658Y-7042936D01*
X7060658Y-7042936D02*
X7051134Y-7052460D01*
X7051134Y-7052460D02*
X7032086Y-7061984D01*
X7032086Y-7061984D02*
X7013039Y-7061984D01*
X7013039Y-7061984D02*
X6993991Y-7052460D01*
X6993991Y-7052460D02*
X6984467Y-7042936D01*
X6984467Y-7042936D02*
X6974943Y-7023888D01*
X6974943Y-7023888D02*
X6965420Y-6985793D01*
X6965420Y-6985793D02*
X6965420Y-6938174D01*
X6965420Y-6938174D02*
X6974943Y-6900079D01*
X6974943Y-6900079D02*
X6984467Y-6881031D01*
X6984467Y-6881031D02*
X6993991Y-6871508D01*
X6993991Y-6871508D02*
X7013039Y-6861984D01*
X7165420Y-7061984D02*
X7165420Y-6928650D01*
X7165420Y-6947698D02*
X7174943Y-6938174D01*
X7174943Y-6938174D02*
X7193991Y-6928650D01*
X7193991Y-6928650D02*
X7222563Y-6928650D01*
X7222563Y-6928650D02*
X7241610Y-6938174D01*
X7241610Y-6938174D02*
X7251134Y-6957222D01*
X7251134Y-6957222D02*
X7251134Y-7061984D01*
X7251134Y-6957222D02*
X7260658Y-6938174D01*
X7260658Y-6938174D02*
X7279705Y-6928650D01*
X7279705Y-6928650D02*
X7308277Y-6928650D01*
X7308277Y-6928650D02*
X7327324Y-6938174D01*
X7327324Y-6938174D02*
X7336848Y-6957222D01*
X7336848Y-6957222D02*
X7336848Y-7061984D01*
X7432086Y-7061984D02*
X7432086Y-6928650D01*
X7432086Y-6947698D02*
X7441610Y-6938174D01*
X7441610Y-6938174D02*
X7460658Y-6928650D01*
X7460658Y-6928650D02*
X7489229Y-6928650D01*
X7489229Y-6928650D02*
X7508277Y-6938174D01*
X7508277Y-6938174D02*
X7517801Y-6957222D01*
X7517801Y-6957222D02*
X7517801Y-7061984D01*
X7517801Y-6957222D02*
X7527324Y-6938174D01*
X7527324Y-6938174D02*
X7546372Y-6928650D01*
X7546372Y-6928650D02*
X7574943Y-6928650D01*
X7574943Y-6928650D02*
X7593991Y-6938174D01*
X7593991Y-6938174D02*
X7603515Y-6957222D01*
X7603515Y-6957222D02*
X7603515Y-7061984D01*
X7993991Y-6852460D02*
X7822563Y-7109603D01*
X8251134Y-6861984D02*
X8270182Y-6861984D01*
X8270182Y-6861984D02*
X8289229Y-6871508D01*
X8289229Y-6871508D02*
X8298753Y-6881031D01*
X8298753Y-6881031D02*
X8308277Y-6900079D01*
X8308277Y-6900079D02*
X8317801Y-6938174D01*
X8317801Y-6938174D02*
X8317801Y-6985793D01*
X8317801Y-6985793D02*
X8308277Y-7023888D01*
X8308277Y-7023888D02*
X8298753Y-7042936D01*
X8298753Y-7042936D02*
X8289229Y-7052460D01*
X8289229Y-7052460D02*
X8270182Y-7061984D01*
X8270182Y-7061984D02*
X8251134Y-7061984D01*
X8251134Y-7061984D02*
X8232086Y-7052460D01*
X8232086Y-7052460D02*
X8222563Y-7042936D01*
X8222563Y-7042936D02*
X8213039Y-7023888D01*
X8213039Y-7023888D02*
X8203515Y-6985793D01*
X8203515Y-6985793D02*
X8203515Y-6938174D01*
X8203515Y-6938174D02*
X8213039Y-6900079D01*
X8213039Y-6900079D02*
X8222563Y-6881031D01*
X8222563Y-6881031D02*
X8232086Y-6871508D01*
X8232086Y-6871508D02*
X8251134Y-6861984D01*
X8403515Y-7042936D02*
X8413039Y-7052460D01*
X8413039Y-7052460D02*
X8403515Y-7061984D01*
X8403515Y-7061984D02*
X8393991Y-7052460D01*
X8393991Y-7052460D02*
X8403515Y-7042936D01*
X8403515Y-7042936D02*
X8403515Y-7061984D01*
X8536848Y-6861984D02*
X8555896Y-6861984D01*
X8555896Y-6861984D02*
X8574944Y-6871508D01*
X8574944Y-6871508D02*
X8584468Y-6881031D01*
X8584468Y-6881031D02*
X8593991Y-6900079D01*
X8593991Y-6900079D02*
X8603515Y-6938174D01*
X8603515Y-6938174D02*
X8603515Y-6985793D01*
X8603515Y-6985793D02*
X8593991Y-7023888D01*
X8593991Y-7023888D02*
X8584468Y-7042936D01*
X8584468Y-7042936D02*
X8574944Y-7052460D01*
X8574944Y-7052460D02*
X8555896Y-7061984D01*
X8555896Y-7061984D02*
X8536848Y-7061984D01*
X8536848Y-7061984D02*
X8517801Y-7052460D01*
X8517801Y-7052460D02*
X8508277Y-7042936D01*
X8508277Y-7042936D02*
X8498753Y-7023888D01*
X8498753Y-7023888D02*
X8489229Y-6985793D01*
X8489229Y-6985793D02*
X8489229Y-6938174D01*
X8489229Y-6938174D02*
X8498753Y-6900079D01*
X8498753Y-6900079D02*
X8508277Y-6881031D01*
X8508277Y-6881031D02*
X8517801Y-6871508D01*
X8517801Y-6871508D02*
X8536848Y-6861984D01*
X8670182Y-6861984D02*
X8793991Y-6861984D01*
X8793991Y-6861984D02*
X8727325Y-6938174D01*
X8727325Y-6938174D02*
X8755896Y-6938174D01*
X8755896Y-6938174D02*
X8774944Y-6947698D01*
X8774944Y-6947698D02*
X8784468Y-6957222D01*
X8784468Y-6957222D02*
X8793991Y-6976269D01*
X8793991Y-6976269D02*
X8793991Y-7023888D01*
X8793991Y-7023888D02*
X8784468Y-7042936D01*
X8784468Y-7042936D02*
X8774944Y-7052460D01*
X8774944Y-7052460D02*
X8755896Y-7061984D01*
X8755896Y-7061984D02*
X8698753Y-7061984D01*
X8698753Y-7061984D02*
X8679706Y-7052460D01*
X8679706Y-7052460D02*
X8670182Y-7042936D01*
X8889229Y-7061984D02*
X8927325Y-7061984D01*
X8927325Y-7061984D02*
X8946372Y-7052460D01*
X8946372Y-7052460D02*
X8955896Y-7042936D01*
X8955896Y-7042936D02*
X8974944Y-7014365D01*
X8974944Y-7014365D02*
X8984468Y-6976269D01*
X8984468Y-6976269D02*
X8984468Y-6900079D01*
X8984468Y-6900079D02*
X8974944Y-6881031D01*
X8974944Y-6881031D02*
X8965420Y-6871508D01*
X8965420Y-6871508D02*
X8946372Y-6861984D01*
X8946372Y-6861984D02*
X8908277Y-6861984D01*
X8908277Y-6861984D02*
X8889229Y-6871508D01*
X8889229Y-6871508D02*
X8879706Y-6881031D01*
X8879706Y-6881031D02*
X8870182Y-6900079D01*
X8870182Y-6900079D02*
X8870182Y-6947698D01*
X8870182Y-6947698D02*
X8879706Y-6966746D01*
X8879706Y-6966746D02*
X8889229Y-6976269D01*
X8889229Y-6976269D02*
X8908277Y-6985793D01*
X8908277Y-6985793D02*
X8946372Y-6985793D01*
X8946372Y-6985793D02*
X8965420Y-6976269D01*
X8965420Y-6976269D02*
X8974944Y-6966746D01*
X8974944Y-6966746D02*
X8984468Y-6947698D01*
X9155896Y-6928650D02*
X9155896Y-7061984D01*
X9108277Y-6852460D02*
X9060658Y-6995317D01*
X9060658Y-6995317D02*
X9184468Y-6995317D01*
X9251134Y-6861984D02*
X9251134Y-6900079D01*
X9327325Y-6861984D02*
X9327325Y-6900079D01*
X9622563Y-7138174D02*
X9613039Y-7128650D01*
X9613039Y-7128650D02*
X9593991Y-7100079D01*
X9593991Y-7100079D02*
X9584468Y-7081031D01*
X9584468Y-7081031D02*
X9574944Y-7052460D01*
X9574944Y-7052460D02*
X9565420Y-7004841D01*
X9565420Y-7004841D02*
X9565420Y-6966746D01*
X9565420Y-6966746D02*
X9574944Y-6919127D01*
X9574944Y-6919127D02*
X9584468Y-6890555D01*
X9584468Y-6890555D02*
X9593991Y-6871508D01*
X9593991Y-6871508D02*
X9613039Y-6842936D01*
X9613039Y-6842936D02*
X9622563Y-6833412D01*
X9708277Y-7061984D02*
X9746372Y-7061984D01*
X9746372Y-7061984D02*
X9765420Y-7052460D01*
X9765420Y-7052460D02*
X9774944Y-7042936D01*
X9774944Y-7042936D02*
X9793991Y-7014365D01*
X9793991Y-7014365D02*
X9803515Y-6976269D01*
X9803515Y-6976269D02*
X9803515Y-6900079D01*
X9803515Y-6900079D02*
X9793991Y-6881031D01*
X9793991Y-6881031D02*
X9784468Y-6871508D01*
X9784468Y-6871508D02*
X9765420Y-6861984D01*
X9765420Y-6861984D02*
X9727325Y-6861984D01*
X9727325Y-6861984D02*
X9708277Y-6871508D01*
X9708277Y-6871508D02*
X9698753Y-6881031D01*
X9698753Y-6881031D02*
X9689230Y-6900079D01*
X9689230Y-6900079D02*
X9689230Y-6947698D01*
X9689230Y-6947698D02*
X9698753Y-6966746D01*
X9698753Y-6966746D02*
X9708277Y-6976269D01*
X9708277Y-6976269D02*
X9727325Y-6985793D01*
X9727325Y-6985793D02*
X9765420Y-6985793D01*
X9765420Y-6985793D02*
X9784468Y-6976269D01*
X9784468Y-6976269D02*
X9793991Y-6966746D01*
X9793991Y-6966746D02*
X9803515Y-6947698D01*
X10041611Y-7061984D02*
X10041611Y-6861984D01*
X10127325Y-7061984D02*
X10127325Y-6957222D01*
X10127325Y-6957222D02*
X10117801Y-6938174D01*
X10117801Y-6938174D02*
X10098753Y-6928650D01*
X10098753Y-6928650D02*
X10070182Y-6928650D01*
X10070182Y-6928650D02*
X10051134Y-6938174D01*
X10051134Y-6938174D02*
X10041611Y-6947698D01*
X10251134Y-7061984D02*
X10232087Y-7052460D01*
X10232087Y-7052460D02*
X10222563Y-7042936D01*
X10222563Y-7042936D02*
X10213039Y-7023888D01*
X10213039Y-7023888D02*
X10213039Y-6966746D01*
X10213039Y-6966746D02*
X10222563Y-6947698D01*
X10222563Y-6947698D02*
X10232087Y-6938174D01*
X10232087Y-6938174D02*
X10251134Y-6928650D01*
X10251134Y-6928650D02*
X10279706Y-6928650D01*
X10279706Y-6928650D02*
X10298753Y-6938174D01*
X10298753Y-6938174D02*
X10308277Y-6947698D01*
X10308277Y-6947698D02*
X10317801Y-6966746D01*
X10317801Y-6966746D02*
X10317801Y-7023888D01*
X10317801Y-7023888D02*
X10308277Y-7042936D01*
X10308277Y-7042936D02*
X10298753Y-7052460D01*
X10298753Y-7052460D02*
X10279706Y-7061984D01*
X10279706Y-7061984D02*
X10251134Y-7061984D01*
X10432087Y-7061984D02*
X10413039Y-7052460D01*
X10413039Y-7052460D02*
X10403515Y-7033412D01*
X10403515Y-7033412D02*
X10403515Y-6861984D01*
X10584468Y-7052460D02*
X10565420Y-7061984D01*
X10565420Y-7061984D02*
X10527325Y-7061984D01*
X10527325Y-7061984D02*
X10508277Y-7052460D01*
X10508277Y-7052460D02*
X10498753Y-7033412D01*
X10498753Y-7033412D02*
X10498753Y-6957222D01*
X10498753Y-6957222D02*
X10508277Y-6938174D01*
X10508277Y-6938174D02*
X10527325Y-6928650D01*
X10527325Y-6928650D02*
X10565420Y-6928650D01*
X10565420Y-6928650D02*
X10584468Y-6938174D01*
X10584468Y-6938174D02*
X10593992Y-6957222D01*
X10593992Y-6957222D02*
X10593992Y-6976269D01*
X10593992Y-6976269D02*
X10498753Y-6995317D01*
X10670182Y-7052460D02*
X10689230Y-7061984D01*
X10689230Y-7061984D02*
X10727325Y-7061984D01*
X10727325Y-7061984D02*
X10746373Y-7052460D01*
X10746373Y-7052460D02*
X10755896Y-7033412D01*
X10755896Y-7033412D02*
X10755896Y-7023888D01*
X10755896Y-7023888D02*
X10746373Y-7004841D01*
X10746373Y-7004841D02*
X10727325Y-6995317D01*
X10727325Y-6995317D02*
X10698753Y-6995317D01*
X10698753Y-6995317D02*
X10679706Y-6985793D01*
X10679706Y-6985793D02*
X10670182Y-6966746D01*
X10670182Y-6966746D02*
X10670182Y-6957222D01*
X10670182Y-6957222D02*
X10679706Y-6938174D01*
X10679706Y-6938174D02*
X10698753Y-6928650D01*
X10698753Y-6928650D02*
X10727325Y-6928650D01*
X10727325Y-6928650D02*
X10746373Y-6938174D01*
X10822563Y-7138174D02*
X10832087Y-7128650D01*
X10832087Y-7128650D02*
X10851134Y-7100079D01*
X10851134Y-7100079D02*
X10860658Y-7081031D01*
X10860658Y-7081031D02*
X10870182Y-7052460D01*
X10870182Y-7052460D02*
X10879706Y-7004841D01*
X10879706Y-7004841D02*
X10879706Y-6966746D01*
X10879706Y-6966746D02*
X10870182Y-6919127D01*
X10870182Y-6919127D02*
X10860658Y-6890555D01*
X10860658Y-6890555D02*
X10851134Y-6871508D01*
X10851134Y-6871508D02*
X10832087Y-6842936D01*
X10832087Y-6842936D02*
X10822563Y-6833412D01*
M02*
