%TF.GenerationSoftware,KiCad,Pcbnew,8.0.5*%
%TF.CreationDate,2024-10-08T18:50:19+09:00*%
%TF.ProjectId,ATT_24dB,4154545f-3234-4644-922e-6b696361645f,rev?*%
%TF.SameCoordinates,Original*%
%TF.FileFunction,Drillmap*%
%TF.FilePolarity,Positive*%
%FSLAX45Y45*%
G04 Gerber Fmt 4.5, Leading zero omitted, Abs format (unit mm)*
G04 Created by KiCad (PCBNEW 8.0.5) date 2024-10-08 18:50:19*
%MOMM*%
%LPD*%
G01*
G04 APERTURE LIST*
%ADD10C,0.050000*%
%ADD11C,0.200000*%
%ADD12C,0.320000*%
G04 APERTURE END LIST*
D10*
X6050000Y-2500000D02*
X11450000Y-2500000D01*
X11450000Y-5800000D01*
X6050000Y-5800000D01*
X6050000Y-2500000D01*
D11*
D12*
X6290000Y-2740000D02*
X6610000Y-3060000D01*
X6610000Y-2740000D02*
X6290000Y-3060000D01*
X6290000Y-5240000D02*
X6610000Y-5560000D01*
X6610000Y-5240000D02*
X6290000Y-5560000D01*
X10890000Y-2740000D02*
X11210000Y-3060000D01*
X11210000Y-2740000D02*
X10890000Y-3060000D01*
X10890000Y-5240000D02*
X11210000Y-5560000D01*
X11210000Y-5240000D02*
X10890000Y-5560000D01*
D11*
X6308277Y-6113984D02*
X6308277Y-5913984D01*
X6308277Y-5913984D02*
X6355896Y-5913984D01*
X6355896Y-5913984D02*
X6384467Y-5923508D01*
X6384467Y-5923508D02*
X6403515Y-5942555D01*
X6403515Y-5942555D02*
X6413039Y-5961603D01*
X6413039Y-5961603D02*
X6422562Y-5999698D01*
X6422562Y-5999698D02*
X6422562Y-6028269D01*
X6422562Y-6028269D02*
X6413039Y-6066365D01*
X6413039Y-6066365D02*
X6403515Y-6085412D01*
X6403515Y-6085412D02*
X6384467Y-6104460D01*
X6384467Y-6104460D02*
X6355896Y-6113984D01*
X6355896Y-6113984D02*
X6308277Y-6113984D01*
X6508277Y-6113984D02*
X6508277Y-5980650D01*
X6508277Y-6018746D02*
X6517801Y-5999698D01*
X6517801Y-5999698D02*
X6527324Y-5990174D01*
X6527324Y-5990174D02*
X6546372Y-5980650D01*
X6546372Y-5980650D02*
X6565420Y-5980650D01*
X6632086Y-6113984D02*
X6632086Y-5980650D01*
X6632086Y-5913984D02*
X6622562Y-5923508D01*
X6622562Y-5923508D02*
X6632086Y-5933031D01*
X6632086Y-5933031D02*
X6641610Y-5923508D01*
X6641610Y-5923508D02*
X6632086Y-5913984D01*
X6632086Y-5913984D02*
X6632086Y-5933031D01*
X6755896Y-6113984D02*
X6736848Y-6104460D01*
X6736848Y-6104460D02*
X6727324Y-6085412D01*
X6727324Y-6085412D02*
X6727324Y-5913984D01*
X6860658Y-6113984D02*
X6841610Y-6104460D01*
X6841610Y-6104460D02*
X6832086Y-6085412D01*
X6832086Y-6085412D02*
X6832086Y-5913984D01*
X7089229Y-6113984D02*
X7089229Y-5913984D01*
X7089229Y-5913984D02*
X7155896Y-6056841D01*
X7155896Y-6056841D02*
X7222562Y-5913984D01*
X7222562Y-5913984D02*
X7222562Y-6113984D01*
X7403515Y-6113984D02*
X7403515Y-6009222D01*
X7403515Y-6009222D02*
X7393991Y-5990174D01*
X7393991Y-5990174D02*
X7374943Y-5980650D01*
X7374943Y-5980650D02*
X7336848Y-5980650D01*
X7336848Y-5980650D02*
X7317801Y-5990174D01*
X7403515Y-6104460D02*
X7384467Y-6113984D01*
X7384467Y-6113984D02*
X7336848Y-6113984D01*
X7336848Y-6113984D02*
X7317801Y-6104460D01*
X7317801Y-6104460D02*
X7308277Y-6085412D01*
X7308277Y-6085412D02*
X7308277Y-6066365D01*
X7308277Y-6066365D02*
X7317801Y-6047317D01*
X7317801Y-6047317D02*
X7336848Y-6037793D01*
X7336848Y-6037793D02*
X7384467Y-6037793D01*
X7384467Y-6037793D02*
X7403515Y-6028269D01*
X7498753Y-5980650D02*
X7498753Y-6180650D01*
X7498753Y-5990174D02*
X7517801Y-5980650D01*
X7517801Y-5980650D02*
X7555896Y-5980650D01*
X7555896Y-5980650D02*
X7574943Y-5990174D01*
X7574943Y-5990174D02*
X7584467Y-5999698D01*
X7584467Y-5999698D02*
X7593991Y-6018746D01*
X7593991Y-6018746D02*
X7593991Y-6075888D01*
X7593991Y-6075888D02*
X7584467Y-6094936D01*
X7584467Y-6094936D02*
X7574943Y-6104460D01*
X7574943Y-6104460D02*
X7555896Y-6113984D01*
X7555896Y-6113984D02*
X7517801Y-6113984D01*
X7517801Y-6113984D02*
X7498753Y-6104460D01*
X7679705Y-6094936D02*
X7689229Y-6104460D01*
X7689229Y-6104460D02*
X7679705Y-6113984D01*
X7679705Y-6113984D02*
X7670182Y-6104460D01*
X7670182Y-6104460D02*
X7679705Y-6094936D01*
X7679705Y-6094936D02*
X7679705Y-6113984D01*
X7679705Y-5990174D02*
X7689229Y-5999698D01*
X7689229Y-5999698D02*
X7679705Y-6009222D01*
X7679705Y-6009222D02*
X7670182Y-5999698D01*
X7670182Y-5999698D02*
X7679705Y-5990174D01*
X7679705Y-5990174D02*
X7679705Y-6009222D01*
X5847500Y-6342500D02*
X6047500Y-6542500D01*
X6047500Y-6342500D02*
X5847500Y-6542500D01*
X6289229Y-6333984D02*
X6413039Y-6333984D01*
X6413039Y-6333984D02*
X6346372Y-6410174D01*
X6346372Y-6410174D02*
X6374943Y-6410174D01*
X6374943Y-6410174D02*
X6393991Y-6419698D01*
X6393991Y-6419698D02*
X6403515Y-6429222D01*
X6403515Y-6429222D02*
X6413039Y-6448269D01*
X6413039Y-6448269D02*
X6413039Y-6495888D01*
X6413039Y-6495888D02*
X6403515Y-6514936D01*
X6403515Y-6514936D02*
X6393991Y-6524460D01*
X6393991Y-6524460D02*
X6374943Y-6533984D01*
X6374943Y-6533984D02*
X6317801Y-6533984D01*
X6317801Y-6533984D02*
X6298753Y-6524460D01*
X6298753Y-6524460D02*
X6289229Y-6514936D01*
X6498753Y-6514936D02*
X6508277Y-6524460D01*
X6508277Y-6524460D02*
X6498753Y-6533984D01*
X6498753Y-6533984D02*
X6489229Y-6524460D01*
X6489229Y-6524460D02*
X6498753Y-6514936D01*
X6498753Y-6514936D02*
X6498753Y-6533984D01*
X6584467Y-6353031D02*
X6593991Y-6343508D01*
X6593991Y-6343508D02*
X6613039Y-6333984D01*
X6613039Y-6333984D02*
X6660658Y-6333984D01*
X6660658Y-6333984D02*
X6679705Y-6343508D01*
X6679705Y-6343508D02*
X6689229Y-6353031D01*
X6689229Y-6353031D02*
X6698753Y-6372079D01*
X6698753Y-6372079D02*
X6698753Y-6391127D01*
X6698753Y-6391127D02*
X6689229Y-6419698D01*
X6689229Y-6419698D02*
X6574943Y-6533984D01*
X6574943Y-6533984D02*
X6698753Y-6533984D01*
X6822562Y-6333984D02*
X6841610Y-6333984D01*
X6841610Y-6333984D02*
X6860658Y-6343508D01*
X6860658Y-6343508D02*
X6870182Y-6353031D01*
X6870182Y-6353031D02*
X6879705Y-6372079D01*
X6879705Y-6372079D02*
X6889229Y-6410174D01*
X6889229Y-6410174D02*
X6889229Y-6457793D01*
X6889229Y-6457793D02*
X6879705Y-6495888D01*
X6879705Y-6495888D02*
X6870182Y-6514936D01*
X6870182Y-6514936D02*
X6860658Y-6524460D01*
X6860658Y-6524460D02*
X6841610Y-6533984D01*
X6841610Y-6533984D02*
X6822562Y-6533984D01*
X6822562Y-6533984D02*
X6803515Y-6524460D01*
X6803515Y-6524460D02*
X6793991Y-6514936D01*
X6793991Y-6514936D02*
X6784467Y-6495888D01*
X6784467Y-6495888D02*
X6774943Y-6457793D01*
X6774943Y-6457793D02*
X6774943Y-6410174D01*
X6774943Y-6410174D02*
X6784467Y-6372079D01*
X6784467Y-6372079D02*
X6793991Y-6353031D01*
X6793991Y-6353031D02*
X6803515Y-6343508D01*
X6803515Y-6343508D02*
X6822562Y-6333984D01*
X7013039Y-6333984D02*
X7032086Y-6333984D01*
X7032086Y-6333984D02*
X7051134Y-6343508D01*
X7051134Y-6343508D02*
X7060658Y-6353031D01*
X7060658Y-6353031D02*
X7070182Y-6372079D01*
X7070182Y-6372079D02*
X7079705Y-6410174D01*
X7079705Y-6410174D02*
X7079705Y-6457793D01*
X7079705Y-6457793D02*
X7070182Y-6495888D01*
X7070182Y-6495888D02*
X7060658Y-6514936D01*
X7060658Y-6514936D02*
X7051134Y-6524460D01*
X7051134Y-6524460D02*
X7032086Y-6533984D01*
X7032086Y-6533984D02*
X7013039Y-6533984D01*
X7013039Y-6533984D02*
X6993991Y-6524460D01*
X6993991Y-6524460D02*
X6984467Y-6514936D01*
X6984467Y-6514936D02*
X6974943Y-6495888D01*
X6974943Y-6495888D02*
X6965420Y-6457793D01*
X6965420Y-6457793D02*
X6965420Y-6410174D01*
X6965420Y-6410174D02*
X6974943Y-6372079D01*
X6974943Y-6372079D02*
X6984467Y-6353031D01*
X6984467Y-6353031D02*
X6993991Y-6343508D01*
X6993991Y-6343508D02*
X7013039Y-6333984D01*
X7165420Y-6533984D02*
X7165420Y-6400650D01*
X7165420Y-6419698D02*
X7174943Y-6410174D01*
X7174943Y-6410174D02*
X7193991Y-6400650D01*
X7193991Y-6400650D02*
X7222563Y-6400650D01*
X7222563Y-6400650D02*
X7241610Y-6410174D01*
X7241610Y-6410174D02*
X7251134Y-6429222D01*
X7251134Y-6429222D02*
X7251134Y-6533984D01*
X7251134Y-6429222D02*
X7260658Y-6410174D01*
X7260658Y-6410174D02*
X7279705Y-6400650D01*
X7279705Y-6400650D02*
X7308277Y-6400650D01*
X7308277Y-6400650D02*
X7327324Y-6410174D01*
X7327324Y-6410174D02*
X7336848Y-6429222D01*
X7336848Y-6429222D02*
X7336848Y-6533984D01*
X7432086Y-6533984D02*
X7432086Y-6400650D01*
X7432086Y-6419698D02*
X7441610Y-6410174D01*
X7441610Y-6410174D02*
X7460658Y-6400650D01*
X7460658Y-6400650D02*
X7489229Y-6400650D01*
X7489229Y-6400650D02*
X7508277Y-6410174D01*
X7508277Y-6410174D02*
X7517801Y-6429222D01*
X7517801Y-6429222D02*
X7517801Y-6533984D01*
X7517801Y-6429222D02*
X7527324Y-6410174D01*
X7527324Y-6410174D02*
X7546372Y-6400650D01*
X7546372Y-6400650D02*
X7574943Y-6400650D01*
X7574943Y-6400650D02*
X7593991Y-6410174D01*
X7593991Y-6410174D02*
X7603515Y-6429222D01*
X7603515Y-6429222D02*
X7603515Y-6533984D01*
X7993991Y-6324460D02*
X7822563Y-6581603D01*
X8251134Y-6333984D02*
X8270182Y-6333984D01*
X8270182Y-6333984D02*
X8289229Y-6343508D01*
X8289229Y-6343508D02*
X8298753Y-6353031D01*
X8298753Y-6353031D02*
X8308277Y-6372079D01*
X8308277Y-6372079D02*
X8317801Y-6410174D01*
X8317801Y-6410174D02*
X8317801Y-6457793D01*
X8317801Y-6457793D02*
X8308277Y-6495888D01*
X8308277Y-6495888D02*
X8298753Y-6514936D01*
X8298753Y-6514936D02*
X8289229Y-6524460D01*
X8289229Y-6524460D02*
X8270182Y-6533984D01*
X8270182Y-6533984D02*
X8251134Y-6533984D01*
X8251134Y-6533984D02*
X8232086Y-6524460D01*
X8232086Y-6524460D02*
X8222563Y-6514936D01*
X8222563Y-6514936D02*
X8213039Y-6495888D01*
X8213039Y-6495888D02*
X8203515Y-6457793D01*
X8203515Y-6457793D02*
X8203515Y-6410174D01*
X8203515Y-6410174D02*
X8213039Y-6372079D01*
X8213039Y-6372079D02*
X8222563Y-6353031D01*
X8222563Y-6353031D02*
X8232086Y-6343508D01*
X8232086Y-6343508D02*
X8251134Y-6333984D01*
X8403515Y-6514936D02*
X8413039Y-6524460D01*
X8413039Y-6524460D02*
X8403515Y-6533984D01*
X8403515Y-6533984D02*
X8393991Y-6524460D01*
X8393991Y-6524460D02*
X8403515Y-6514936D01*
X8403515Y-6514936D02*
X8403515Y-6533984D01*
X8603515Y-6533984D02*
X8489229Y-6533984D01*
X8546372Y-6533984D02*
X8546372Y-6333984D01*
X8546372Y-6333984D02*
X8527325Y-6362555D01*
X8527325Y-6362555D02*
X8508277Y-6381603D01*
X8508277Y-6381603D02*
X8489229Y-6391127D01*
X8679706Y-6353031D02*
X8689229Y-6343508D01*
X8689229Y-6343508D02*
X8708277Y-6333984D01*
X8708277Y-6333984D02*
X8755896Y-6333984D01*
X8755896Y-6333984D02*
X8774944Y-6343508D01*
X8774944Y-6343508D02*
X8784468Y-6353031D01*
X8784468Y-6353031D02*
X8793991Y-6372079D01*
X8793991Y-6372079D02*
X8793991Y-6391127D01*
X8793991Y-6391127D02*
X8784468Y-6419698D01*
X8784468Y-6419698D02*
X8670182Y-6533984D01*
X8670182Y-6533984D02*
X8793991Y-6533984D01*
X8965420Y-6333984D02*
X8927325Y-6333984D01*
X8927325Y-6333984D02*
X8908277Y-6343508D01*
X8908277Y-6343508D02*
X8898753Y-6353031D01*
X8898753Y-6353031D02*
X8879706Y-6381603D01*
X8879706Y-6381603D02*
X8870182Y-6419698D01*
X8870182Y-6419698D02*
X8870182Y-6495888D01*
X8870182Y-6495888D02*
X8879706Y-6514936D01*
X8879706Y-6514936D02*
X8889229Y-6524460D01*
X8889229Y-6524460D02*
X8908277Y-6533984D01*
X8908277Y-6533984D02*
X8946372Y-6533984D01*
X8946372Y-6533984D02*
X8965420Y-6524460D01*
X8965420Y-6524460D02*
X8974944Y-6514936D01*
X8974944Y-6514936D02*
X8984468Y-6495888D01*
X8984468Y-6495888D02*
X8984468Y-6448269D01*
X8984468Y-6448269D02*
X8974944Y-6429222D01*
X8974944Y-6429222D02*
X8965420Y-6419698D01*
X8965420Y-6419698D02*
X8946372Y-6410174D01*
X8946372Y-6410174D02*
X8908277Y-6410174D01*
X8908277Y-6410174D02*
X8889229Y-6419698D01*
X8889229Y-6419698D02*
X8879706Y-6429222D01*
X8879706Y-6429222D02*
X8870182Y-6448269D01*
X9108277Y-6333984D02*
X9127325Y-6333984D01*
X9127325Y-6333984D02*
X9146372Y-6343508D01*
X9146372Y-6343508D02*
X9155896Y-6353031D01*
X9155896Y-6353031D02*
X9165420Y-6372079D01*
X9165420Y-6372079D02*
X9174944Y-6410174D01*
X9174944Y-6410174D02*
X9174944Y-6457793D01*
X9174944Y-6457793D02*
X9165420Y-6495888D01*
X9165420Y-6495888D02*
X9155896Y-6514936D01*
X9155896Y-6514936D02*
X9146372Y-6524460D01*
X9146372Y-6524460D02*
X9127325Y-6533984D01*
X9127325Y-6533984D02*
X9108277Y-6533984D01*
X9108277Y-6533984D02*
X9089229Y-6524460D01*
X9089229Y-6524460D02*
X9079706Y-6514936D01*
X9079706Y-6514936D02*
X9070182Y-6495888D01*
X9070182Y-6495888D02*
X9060658Y-6457793D01*
X9060658Y-6457793D02*
X9060658Y-6410174D01*
X9060658Y-6410174D02*
X9070182Y-6372079D01*
X9070182Y-6372079D02*
X9079706Y-6353031D01*
X9079706Y-6353031D02*
X9089229Y-6343508D01*
X9089229Y-6343508D02*
X9108277Y-6333984D01*
X9251134Y-6333984D02*
X9251134Y-6372079D01*
X9327325Y-6333984D02*
X9327325Y-6372079D01*
X9622563Y-6610174D02*
X9613039Y-6600650D01*
X9613039Y-6600650D02*
X9593991Y-6572079D01*
X9593991Y-6572079D02*
X9584468Y-6553031D01*
X9584468Y-6553031D02*
X9574944Y-6524460D01*
X9574944Y-6524460D02*
X9565420Y-6476841D01*
X9565420Y-6476841D02*
X9565420Y-6438746D01*
X9565420Y-6438746D02*
X9574944Y-6391127D01*
X9574944Y-6391127D02*
X9584468Y-6362555D01*
X9584468Y-6362555D02*
X9593991Y-6343508D01*
X9593991Y-6343508D02*
X9613039Y-6314936D01*
X9613039Y-6314936D02*
X9622563Y-6305412D01*
X9784468Y-6400650D02*
X9784468Y-6533984D01*
X9736849Y-6324460D02*
X9689230Y-6467317D01*
X9689230Y-6467317D02*
X9813039Y-6467317D01*
X10041611Y-6533984D02*
X10041611Y-6333984D01*
X10127325Y-6533984D02*
X10127325Y-6429222D01*
X10127325Y-6429222D02*
X10117801Y-6410174D01*
X10117801Y-6410174D02*
X10098753Y-6400650D01*
X10098753Y-6400650D02*
X10070182Y-6400650D01*
X10070182Y-6400650D02*
X10051134Y-6410174D01*
X10051134Y-6410174D02*
X10041611Y-6419698D01*
X10251134Y-6533984D02*
X10232087Y-6524460D01*
X10232087Y-6524460D02*
X10222563Y-6514936D01*
X10222563Y-6514936D02*
X10213039Y-6495888D01*
X10213039Y-6495888D02*
X10213039Y-6438746D01*
X10213039Y-6438746D02*
X10222563Y-6419698D01*
X10222563Y-6419698D02*
X10232087Y-6410174D01*
X10232087Y-6410174D02*
X10251134Y-6400650D01*
X10251134Y-6400650D02*
X10279706Y-6400650D01*
X10279706Y-6400650D02*
X10298753Y-6410174D01*
X10298753Y-6410174D02*
X10308277Y-6419698D01*
X10308277Y-6419698D02*
X10317801Y-6438746D01*
X10317801Y-6438746D02*
X10317801Y-6495888D01*
X10317801Y-6495888D02*
X10308277Y-6514936D01*
X10308277Y-6514936D02*
X10298753Y-6524460D01*
X10298753Y-6524460D02*
X10279706Y-6533984D01*
X10279706Y-6533984D02*
X10251134Y-6533984D01*
X10432087Y-6533984D02*
X10413039Y-6524460D01*
X10413039Y-6524460D02*
X10403515Y-6505412D01*
X10403515Y-6505412D02*
X10403515Y-6333984D01*
X10584468Y-6524460D02*
X10565420Y-6533984D01*
X10565420Y-6533984D02*
X10527325Y-6533984D01*
X10527325Y-6533984D02*
X10508277Y-6524460D01*
X10508277Y-6524460D02*
X10498753Y-6505412D01*
X10498753Y-6505412D02*
X10498753Y-6429222D01*
X10498753Y-6429222D02*
X10508277Y-6410174D01*
X10508277Y-6410174D02*
X10527325Y-6400650D01*
X10527325Y-6400650D02*
X10565420Y-6400650D01*
X10565420Y-6400650D02*
X10584468Y-6410174D01*
X10584468Y-6410174D02*
X10593992Y-6429222D01*
X10593992Y-6429222D02*
X10593992Y-6448269D01*
X10593992Y-6448269D02*
X10498753Y-6467317D01*
X10670182Y-6524460D02*
X10689230Y-6533984D01*
X10689230Y-6533984D02*
X10727325Y-6533984D01*
X10727325Y-6533984D02*
X10746373Y-6524460D01*
X10746373Y-6524460D02*
X10755896Y-6505412D01*
X10755896Y-6505412D02*
X10755896Y-6495888D01*
X10755896Y-6495888D02*
X10746373Y-6476841D01*
X10746373Y-6476841D02*
X10727325Y-6467317D01*
X10727325Y-6467317D02*
X10698753Y-6467317D01*
X10698753Y-6467317D02*
X10679706Y-6457793D01*
X10679706Y-6457793D02*
X10670182Y-6438746D01*
X10670182Y-6438746D02*
X10670182Y-6429222D01*
X10670182Y-6429222D02*
X10679706Y-6410174D01*
X10679706Y-6410174D02*
X10698753Y-6400650D01*
X10698753Y-6400650D02*
X10727325Y-6400650D01*
X10727325Y-6400650D02*
X10746373Y-6410174D01*
X10822563Y-6610174D02*
X10832087Y-6600650D01*
X10832087Y-6600650D02*
X10851134Y-6572079D01*
X10851134Y-6572079D02*
X10860658Y-6553031D01*
X10860658Y-6553031D02*
X10870182Y-6524460D01*
X10870182Y-6524460D02*
X10879706Y-6476841D01*
X10879706Y-6476841D02*
X10879706Y-6438746D01*
X10879706Y-6438746D02*
X10870182Y-6391127D01*
X10870182Y-6391127D02*
X10860658Y-6362555D01*
X10860658Y-6362555D02*
X10851134Y-6343508D01*
X10851134Y-6343508D02*
X10832087Y-6314936D01*
X10832087Y-6314936D02*
X10822563Y-6305412D01*
X11184468Y-6610174D02*
X11174944Y-6600650D01*
X11174944Y-6600650D02*
X11155896Y-6572079D01*
X11155896Y-6572079D02*
X11146373Y-6553031D01*
X11146373Y-6553031D02*
X11136849Y-6524460D01*
X11136849Y-6524460D02*
X11127325Y-6476841D01*
X11127325Y-6476841D02*
X11127325Y-6438746D01*
X11127325Y-6438746D02*
X11136849Y-6391127D01*
X11136849Y-6391127D02*
X11146373Y-6362555D01*
X11146373Y-6362555D02*
X11155896Y-6343508D01*
X11155896Y-6343508D02*
X11174944Y-6314936D01*
X11174944Y-6314936D02*
X11184468Y-6305412D01*
X11260658Y-6400650D02*
X11260658Y-6533984D01*
X11260658Y-6419698D02*
X11270182Y-6410174D01*
X11270182Y-6410174D02*
X11289230Y-6400650D01*
X11289230Y-6400650D02*
X11317801Y-6400650D01*
X11317801Y-6400650D02*
X11336849Y-6410174D01*
X11336849Y-6410174D02*
X11346372Y-6429222D01*
X11346372Y-6429222D02*
X11346372Y-6533984D01*
X11470182Y-6533984D02*
X11451134Y-6524460D01*
X11451134Y-6524460D02*
X11441611Y-6514936D01*
X11441611Y-6514936D02*
X11432087Y-6495888D01*
X11432087Y-6495888D02*
X11432087Y-6438746D01*
X11432087Y-6438746D02*
X11441611Y-6419698D01*
X11441611Y-6419698D02*
X11451134Y-6410174D01*
X11451134Y-6410174D02*
X11470182Y-6400650D01*
X11470182Y-6400650D02*
X11498753Y-6400650D01*
X11498753Y-6400650D02*
X11517801Y-6410174D01*
X11517801Y-6410174D02*
X11527325Y-6419698D01*
X11527325Y-6419698D02*
X11536849Y-6438746D01*
X11536849Y-6438746D02*
X11536849Y-6495888D01*
X11536849Y-6495888D02*
X11527325Y-6514936D01*
X11527325Y-6514936D02*
X11517801Y-6524460D01*
X11517801Y-6524460D02*
X11498753Y-6533984D01*
X11498753Y-6533984D02*
X11470182Y-6533984D01*
X11593992Y-6400650D02*
X11670182Y-6400650D01*
X11622563Y-6333984D02*
X11622563Y-6505412D01*
X11622563Y-6505412D02*
X11632087Y-6524460D01*
X11632087Y-6524460D02*
X11651134Y-6533984D01*
X11651134Y-6533984D02*
X11670182Y-6533984D01*
X11889230Y-6400650D02*
X11889230Y-6600650D01*
X11889230Y-6410174D02*
X11908277Y-6400650D01*
X11908277Y-6400650D02*
X11946373Y-6400650D01*
X11946373Y-6400650D02*
X11965420Y-6410174D01*
X11965420Y-6410174D02*
X11974944Y-6419698D01*
X11974944Y-6419698D02*
X11984468Y-6438746D01*
X11984468Y-6438746D02*
X11984468Y-6495888D01*
X11984468Y-6495888D02*
X11974944Y-6514936D01*
X11974944Y-6514936D02*
X11965420Y-6524460D01*
X11965420Y-6524460D02*
X11946373Y-6533984D01*
X11946373Y-6533984D02*
X11908277Y-6533984D01*
X11908277Y-6533984D02*
X11889230Y-6524460D01*
X12098753Y-6533984D02*
X12079706Y-6524460D01*
X12079706Y-6524460D02*
X12070182Y-6505412D01*
X12070182Y-6505412D02*
X12070182Y-6333984D01*
X12260658Y-6533984D02*
X12260658Y-6429222D01*
X12260658Y-6429222D02*
X12251134Y-6410174D01*
X12251134Y-6410174D02*
X12232087Y-6400650D01*
X12232087Y-6400650D02*
X12193992Y-6400650D01*
X12193992Y-6400650D02*
X12174944Y-6410174D01*
X12260658Y-6524460D02*
X12241611Y-6533984D01*
X12241611Y-6533984D02*
X12193992Y-6533984D01*
X12193992Y-6533984D02*
X12174944Y-6524460D01*
X12174944Y-6524460D02*
X12165420Y-6505412D01*
X12165420Y-6505412D02*
X12165420Y-6486365D01*
X12165420Y-6486365D02*
X12174944Y-6467317D01*
X12174944Y-6467317D02*
X12193992Y-6457793D01*
X12193992Y-6457793D02*
X12241611Y-6457793D01*
X12241611Y-6457793D02*
X12260658Y-6448269D01*
X12327325Y-6400650D02*
X12403515Y-6400650D01*
X12355896Y-6333984D02*
X12355896Y-6505412D01*
X12355896Y-6505412D02*
X12365420Y-6524460D01*
X12365420Y-6524460D02*
X12384468Y-6533984D01*
X12384468Y-6533984D02*
X12403515Y-6533984D01*
X12546373Y-6524460D02*
X12527325Y-6533984D01*
X12527325Y-6533984D02*
X12489230Y-6533984D01*
X12489230Y-6533984D02*
X12470182Y-6524460D01*
X12470182Y-6524460D02*
X12460658Y-6505412D01*
X12460658Y-6505412D02*
X12460658Y-6429222D01*
X12460658Y-6429222D02*
X12470182Y-6410174D01*
X12470182Y-6410174D02*
X12489230Y-6400650D01*
X12489230Y-6400650D02*
X12527325Y-6400650D01*
X12527325Y-6400650D02*
X12546373Y-6410174D01*
X12546373Y-6410174D02*
X12555896Y-6429222D01*
X12555896Y-6429222D02*
X12555896Y-6448269D01*
X12555896Y-6448269D02*
X12460658Y-6467317D01*
X12727325Y-6533984D02*
X12727325Y-6333984D01*
X12727325Y-6524460D02*
X12708277Y-6533984D01*
X12708277Y-6533984D02*
X12670182Y-6533984D01*
X12670182Y-6533984D02*
X12651134Y-6524460D01*
X12651134Y-6524460D02*
X12641611Y-6514936D01*
X12641611Y-6514936D02*
X12632087Y-6495888D01*
X12632087Y-6495888D02*
X12632087Y-6438746D01*
X12632087Y-6438746D02*
X12641611Y-6419698D01*
X12641611Y-6419698D02*
X12651134Y-6410174D01*
X12651134Y-6410174D02*
X12670182Y-6400650D01*
X12670182Y-6400650D02*
X12708277Y-6400650D01*
X12708277Y-6400650D02*
X12727325Y-6410174D01*
X12803515Y-6610174D02*
X12813039Y-6600650D01*
X12813039Y-6600650D02*
X12832087Y-6572079D01*
X12832087Y-6572079D02*
X12841611Y-6553031D01*
X12841611Y-6553031D02*
X12851134Y-6524460D01*
X12851134Y-6524460D02*
X12860658Y-6476841D01*
X12860658Y-6476841D02*
X12860658Y-6438746D01*
X12860658Y-6438746D02*
X12851134Y-6391127D01*
X12851134Y-6391127D02*
X12841611Y-6362555D01*
X12841611Y-6362555D02*
X12832087Y-6343508D01*
X12832087Y-6343508D02*
X12813039Y-6314936D01*
X12813039Y-6314936D02*
X12803515Y-6305412D01*
M02*
